ISO-10303-21;
HEADER;
/* Generated by software containing ST-Developer
 * from STEP Tools, Inc. (www.steptools.com) 
 */

FILE_DESCRIPTION(
/* description */ (''),
/* implementation_level */ '2;1');

FILE_NAME(
/* name */ 'housing.step',
/* time_stamp */ '2026-07-02T23:03:47+02:00',
/* author */ (''),
/* organization */ (''),
/* preprocessor_version */ 'ST-DEVELOPER v20.1',
/* originating_system */ 'Autodesk Translation Framework v15.8.0.0',
/* authorisation */ '');

FILE_SCHEMA (('AUTOMOTIVE_DESIGN { 1 0 10303 214 3 1 1 }'));
ENDSEC;

DATA;
#10=MECHANICAL_DESIGN_GEOMETRIC_PRESENTATION_REPRESENTATION('',(#13,#14,
#15),#2303);
#11=SHAPE_REPRESENTATION_RELATIONSHIP('SRR','None',#2309,#12);
#12=ADVANCED_BREP_SHAPE_REPRESENTATION('',(#16,#17,#18),#2302);
#13=STYLED_ITEM('',(#2319),#16);
#14=STYLED_ITEM('',(#2318),#17);
#15=STYLED_ITEM('',(#2318),#18);
#16=MANIFOLD_SOLID_BREP('Body1',#1429);
#17=MANIFOLD_SOLID_BREP('Body2',#1430);
#18=MANIFOLD_SOLID_BREP('Body3',#1431);
#19=FACE_BOUND('',#215,.T.);
#20=FACE_BOUND('',#218,.T.);
#21=FACE_BOUND('',#221,.T.);
#22=FACE_BOUND('',#224,.T.);
#23=FACE_BOUND('',#227,.T.);
#24=FACE_BOUND('',#228,.T.);
#25=FACE_BOUND('',#229,.T.);
#26=FACE_BOUND('',#231,.T.);
#27=FACE_BOUND('',#232,.T.);
#28=FACE_BOUND('',#233,.T.);
#29=FACE_BOUND('',#235,.T.);
#30=FACE_BOUND('',#236,.T.);
#31=FACE_BOUND('',#237,.T.);
#32=FACE_BOUND('',#239,.T.);
#33=FACE_BOUND('',#240,.T.);
#34=FACE_BOUND('',#241,.T.);
#35=FACE_BOUND('',#242,.T.);
#36=FACE_BOUND('',#244,.T.);
#37=FACE_BOUND('',#245,.T.);
#38=FACE_BOUND('',#246,.T.);
#39=FACE_BOUND('',#248,.T.);
#40=FACE_BOUND('',#249,.T.);
#41=FACE_BOUND('',#250,.T.);
#42=FACE_BOUND('',#252,.T.);
#43=FACE_BOUND('',#253,.T.);
#44=FACE_BOUND('',#254,.T.);
#45=FACE_BOUND('',#257,.T.);
#46=FACE_BOUND('',#268,.T.);
#47=FACE_BOUND('',#269,.T.);
#48=FACE_BOUND('',#270,.T.);
#49=FACE_BOUND('',#271,.T.);
#50=FACE_BOUND('',#273,.T.);
#51=FACE_BOUND('',#274,.T.);
#52=FACE_BOUND('',#275,.T.);
#53=FACE_BOUND('',#276,.T.);
#54=FACE_BOUND('',#283,.T.);
#55=CIRCLE('',#1458,22.5);
#56=CIRCLE('',#1459,22.5);
#57=CIRCLE('',#1465,22.5);
#58=CIRCLE('',#1466,22.5);
#59=CIRCLE('',#1468,16.0000002384186);
#60=CIRCLE('',#1469,16.0000002384186);
#61=CIRCLE('',#1472,15.9999950975207);
#62=CIRCLE('',#1473,15.9999950975207);
#63=CIRCLE('',#1476,16.0000061988858);
#64=CIRCLE('',#1477,16.0000061988858);
#65=CIRCLE('',#1480,16.);
#66=CIRCLE('',#1481,16.);
#67=CIRCLE('',#1484,22.5);
#68=CIRCLE('',#1485,22.5);
#69=CIRCLE('',#1488,22.5);
#70=CIRCLE('',#1489,22.5);
#71=CIRCLE('',#1492,22.5);
#72=CIRCLE('',#1493,22.5);
#73=CIRCLE('',#1496,22.5);
#74=CIRCLE('',#1497,22.5);
#75=CIRCLE('',#1511,22.5);
#76=CIRCLE('',#1512,22.5);
#77=CIRCLE('',#1514,22.5);
#78=CIRCLE('',#1515,22.5);
#79=CIRCLE('',#1517,22.5);
#80=CIRCLE('',#1518,22.5);
#81=CIRCLE('',#1520,22.5);
#82=CIRCLE('',#1521,22.5);
#83=CYLINDRICAL_SURFACE('',#1457,22.5);
#84=CYLINDRICAL_SURFACE('',#1464,22.5);
#85=CYLINDRICAL_SURFACE('',#1467,16.0000002384186);
#86=CYLINDRICAL_SURFACE('',#1471,15.9999950975207);
#87=CYLINDRICAL_SURFACE('',#1475,16.0000061988858);
#88=CYLINDRICAL_SURFACE('',#1479,16.);
#89=CYLINDRICAL_SURFACE('',#1483,22.5);
#90=CYLINDRICAL_SURFACE('',#1487,22.5);
#91=CYLINDRICAL_SURFACE('',#1491,22.5);
#92=CYLINDRICAL_SURFACE('',#1495,22.5);
#93=CYLINDRICAL_SURFACE('',#1510,22.5);
#94=CYLINDRICAL_SURFACE('',#1513,22.5);
#95=CYLINDRICAL_SURFACE('',#1516,22.5);
#96=CYLINDRICAL_SURFACE('',#1519,22.5);
#97=FACE_OUTER_BOUND('',#175,.T.);
#98=FACE_OUTER_BOUND('',#176,.T.);
#99=FACE_OUTER_BOUND('',#177,.T.);
#100=FACE_OUTER_BOUND('',#178,.T.);
#101=FACE_OUTER_BOUND('',#179,.T.);
#102=FACE_OUTER_BOUND('',#180,.T.);
#103=FACE_OUTER_BOUND('',#181,.T.);
#104=FACE_OUTER_BOUND('',#182,.T.);
#105=FACE_OUTER_BOUND('',#183,.T.);
#106=FACE_OUTER_BOUND('',#184,.T.);
#107=FACE_OUTER_BOUND('',#185,.T.);
#108=FACE_OUTER_BOUND('',#186,.T.);
#109=FACE_OUTER_BOUND('',#187,.T.);
#110=FACE_OUTER_BOUND('',#188,.T.);
#111=FACE_OUTER_BOUND('',#189,.T.);
#112=FACE_OUTER_BOUND('',#190,.T.);
#113=FACE_OUTER_BOUND('',#191,.T.);
#114=FACE_OUTER_BOUND('',#192,.T.);
#115=FACE_OUTER_BOUND('',#193,.T.);
#116=FACE_OUTER_BOUND('',#194,.T.);
#117=FACE_OUTER_BOUND('',#195,.T.);
#118=FACE_OUTER_BOUND('',#196,.T.);
#119=FACE_OUTER_BOUND('',#197,.T.);
#120=FACE_OUTER_BOUND('',#198,.T.);
#121=FACE_OUTER_BOUND('',#199,.T.);
#122=FACE_OUTER_BOUND('',#200,.T.);
#123=FACE_OUTER_BOUND('',#201,.T.);
#124=FACE_OUTER_BOUND('',#202,.T.);
#125=FACE_OUTER_BOUND('',#203,.T.);
#126=FACE_OUTER_BOUND('',#204,.T.);
#127=FACE_OUTER_BOUND('',#205,.T.);
#128=FACE_OUTER_BOUND('',#206,.T.);
#129=FACE_OUTER_BOUND('',#207,.T.);
#130=FACE_OUTER_BOUND('',#208,.T.);
#131=FACE_OUTER_BOUND('',#209,.T.);
#132=FACE_OUTER_BOUND('',#210,.T.);
#133=FACE_OUTER_BOUND('',#211,.T.);
#134=FACE_OUTER_BOUND('',#212,.T.);
#135=FACE_OUTER_BOUND('',#213,.T.);
#136=FACE_OUTER_BOUND('',#214,.T.);
#137=FACE_OUTER_BOUND('',#216,.T.);
#138=FACE_OUTER_BOUND('',#217,.T.);
#139=FACE_OUTER_BOUND('',#219,.T.);
#140=FACE_OUTER_BOUND('',#220,.T.);
#141=FACE_OUTER_BOUND('',#222,.T.);
#142=FACE_OUTER_BOUND('',#223,.T.);
#143=FACE_OUTER_BOUND('',#225,.T.);
#144=FACE_OUTER_BOUND('',#226,.T.);
#145=FACE_OUTER_BOUND('',#230,.T.);
#146=FACE_OUTER_BOUND('',#234,.T.);
#147=FACE_OUTER_BOUND('',#238,.T.);
#148=FACE_OUTER_BOUND('',#243,.T.);
#149=FACE_OUTER_BOUND('',#247,.T.);
#150=FACE_OUTER_BOUND('',#251,.T.);
#151=FACE_OUTER_BOUND('',#255,.T.);
#152=FACE_OUTER_BOUND('',#256,.T.);
#153=FACE_OUTER_BOUND('',#258,.T.);
#154=FACE_OUTER_BOUND('',#259,.T.);
#155=FACE_OUTER_BOUND('',#260,.T.);
#156=FACE_OUTER_BOUND('',#261,.T.);
#157=FACE_OUTER_BOUND('',#262,.T.);
#158=FACE_OUTER_BOUND('',#263,.T.);
#159=FACE_OUTER_BOUND('',#264,.T.);
#160=FACE_OUTER_BOUND('',#265,.T.);
#161=FACE_OUTER_BOUND('',#266,.T.);
#162=FACE_OUTER_BOUND('',#267,.T.);
#163=FACE_OUTER_BOUND('',#272,.T.);
#164=FACE_OUTER_BOUND('',#277,.T.);
#165=FACE_OUTER_BOUND('',#278,.T.);
#166=FACE_OUTER_BOUND('',#279,.T.);
#167=FACE_OUTER_BOUND('',#280,.T.);
#168=FACE_OUTER_BOUND('',#281,.T.);
#169=FACE_OUTER_BOUND('',#282,.T.);
#170=FACE_OUTER_BOUND('',#284,.T.);
#171=FACE_OUTER_BOUND('',#285,.T.);
#172=FACE_OUTER_BOUND('',#286,.T.);
#173=FACE_OUTER_BOUND('',#287,.T.);
#174=FACE_OUTER_BOUND('',#288,.T.);
#175=EDGE_LOOP('',(#915,#916,#917,#918));
#176=EDGE_LOOP('',(#919,#920,#921,#922));
#177=EDGE_LOOP('',(#923,#924,#925,#926));
#178=EDGE_LOOP('',(#927,#928,#929,#930));
#179=EDGE_LOOP('',(#931,#932,#933,#934));
#180=EDGE_LOOP('',(#935,#936,#937,#938));
#181=EDGE_LOOP('',(#939,#940,#941,#942));
#182=EDGE_LOOP('',(#943,#944,#945,#946));
#183=EDGE_LOOP('',(#947,#948,#949,#950));
#184=EDGE_LOOP('',(#951,#952,#953,#954));
#185=EDGE_LOOP('',(#955,#956,#957,#958));
#186=EDGE_LOOP('',(#959,#960,#961,#962));
#187=EDGE_LOOP('',(#963,#964,#965,#966));
#188=EDGE_LOOP('',(#967,#968,#969,#970));
#189=EDGE_LOOP('',(#971,#972,#973,#974));
#190=EDGE_LOOP('',(#975,#976,#977,#978));
#191=EDGE_LOOP('',(#979,#980,#981,#982));
#192=EDGE_LOOP('',(#983,#984,#985,#986));
#193=EDGE_LOOP('',(#987,#988,#989,#990));
#194=EDGE_LOOP('',(#991,#992,#993,#994));
#195=EDGE_LOOP('',(#995,#996,#997,#998));
#196=EDGE_LOOP('',(#999,#1000,#1001,#1002));
#197=EDGE_LOOP('',(#1003,#1004,#1005,#1006));
#198=EDGE_LOOP('',(#1007,#1008,#1009,#1010));
#199=EDGE_LOOP('',(#1011,#1012,#1013,#1014));
#200=EDGE_LOOP('',(#1015,#1016,#1017,#1018));
#201=EDGE_LOOP('',(#1019,#1020,#1021,#1022));
#202=EDGE_LOOP('',(#1023,#1024,#1025,#1026));
#203=EDGE_LOOP('',(#1027,#1028,#1029,#1030));
#204=EDGE_LOOP('',(#1031,#1032,#1033,#1034));
#205=EDGE_LOOP('',(#1035,#1036,#1037,#1038));
#206=EDGE_LOOP('',(#1039));
#207=EDGE_LOOP('',(#1040,#1041,#1042,#1043));
#208=EDGE_LOOP('',(#1044));
#209=EDGE_LOOP('',(#1045,#1046,#1047,#1048));
#210=EDGE_LOOP('',(#1049));
#211=EDGE_LOOP('',(#1050,#1051,#1052,#1053));
#212=EDGE_LOOP('',(#1054));
#213=EDGE_LOOP('',(#1055,#1056,#1057,#1058));
#214=EDGE_LOOP('',(#1059));
#215=EDGE_LOOP('',(#1060));
#216=EDGE_LOOP('',(#1061,#1062,#1063,#1064));
#217=EDGE_LOOP('',(#1065));
#218=EDGE_LOOP('',(#1066));
#219=EDGE_LOOP('',(#1067,#1068,#1069,#1070));
#220=EDGE_LOOP('',(#1071));
#221=EDGE_LOOP('',(#1072));
#222=EDGE_LOOP('',(#1073,#1074,#1075,#1076));
#223=EDGE_LOOP('',(#1077));
#224=EDGE_LOOP('',(#1078));
#225=EDGE_LOOP('',(#1079,#1080,#1081,#1082));
#226=EDGE_LOOP('',(#1083,#1084,#1085,#1086));
#227=EDGE_LOOP('',(#1087));
#228=EDGE_LOOP('',(#1088,#1089,#1090,#1091));
#229=EDGE_LOOP('',(#1092));
#230=EDGE_LOOP('',(#1093,#1094,#1095,#1096));
#231=EDGE_LOOP('',(#1097,#1098,#1099,#1100));
#232=EDGE_LOOP('',(#1101,#1102,#1103,#1104));
#233=EDGE_LOOP('',(#1105,#1106,#1107,#1108));
#234=EDGE_LOOP('',(#1109,#1110,#1111,#1112));
#235=EDGE_LOOP('',(#1113,#1114,#1115,#1116));
#236=EDGE_LOOP('',(#1117,#1118,#1119,#1120));
#237=EDGE_LOOP('',(#1121,#1122,#1123,#1124));
#238=EDGE_LOOP('',(#1125,#1126,#1127,#1128));
#239=EDGE_LOOP('',(#1129));
#240=EDGE_LOOP('',(#1130));
#241=EDGE_LOOP('',(#1131));
#242=EDGE_LOOP('',(#1132));
#243=EDGE_LOOP('',(#1133,#1134,#1135,#1136));
#244=EDGE_LOOP('',(#1137,#1138,#1139,#1140));
#245=EDGE_LOOP('',(#1141,#1142,#1143,#1144));
#246=EDGE_LOOP('',(#1145,#1146,#1147,#1148));
#247=EDGE_LOOP('',(#1149,#1150,#1151,#1152));
#248=EDGE_LOOP('',(#1153,#1154,#1155,#1156));
#249=EDGE_LOOP('',(#1157,#1158,#1159,#1160));
#250=EDGE_LOOP('',(#1161,#1162,#1163,#1164));
#251=EDGE_LOOP('',(#1165,#1166,#1167,#1168));
#252=EDGE_LOOP('',(#1169));
#253=EDGE_LOOP('',(#1170,#1171,#1172,#1173));
#254=EDGE_LOOP('',(#1174));
#255=EDGE_LOOP('',(#1175,#1176,#1177,#1178));
#256=EDGE_LOOP('',(#1179,#1180,#1181,#1182));
#257=EDGE_LOOP('',(#1183,#1184,#1185,#1186));
#258=EDGE_LOOP('',(#1187,#1188,#1189,#1190));
#259=EDGE_LOOP('',(#1191,#1192,#1193,#1194));
#260=EDGE_LOOP('',(#1195,#1196,#1197,#1198));
#261=EDGE_LOOP('',(#1199,#1200,#1201,#1202));
#262=EDGE_LOOP('',(#1203,#1204,#1205,#1206));
#263=EDGE_LOOP('',(#1207,#1208,#1209,#1210));
#264=EDGE_LOOP('',(#1211,#1212,#1213,#1214));
#265=EDGE_LOOP('',(#1215,#1216,#1217,#1218));
#266=EDGE_LOOP('',(#1219,#1220,#1221,#1222));
#267=EDGE_LOOP('',(#1223,#1224,#1225,#1226));
#268=EDGE_LOOP('',(#1227));
#269=EDGE_LOOP('',(#1228));
#270=EDGE_LOOP('',(#1229));
#271=EDGE_LOOP('',(#1230));
#272=EDGE_LOOP('',(#1231,#1232,#1233,#1234));
#273=EDGE_LOOP('',(#1235));
#274=EDGE_LOOP('',(#1236));
#275=EDGE_LOOP('',(#1237));
#276=EDGE_LOOP('',(#1238));
#277=EDGE_LOOP('',(#1239,#1240,#1241,#1242));
#278=EDGE_LOOP('',(#1243,#1244,#1245,#1246));
#279=EDGE_LOOP('',(#1247,#1248,#1249,#1250));
#280=EDGE_LOOP('',(#1251,#1252,#1253,#1254));
#281=EDGE_LOOP('',(#1255,#1256,#1257,#1258));
#282=EDGE_LOOP('',(#1259,#1260,#1261,#1262));
#283=EDGE_LOOP('',(#1263,#1264,#1265,#1266));
#284=EDGE_LOOP('',(#1267,#1268,#1269,#1270));
#285=EDGE_LOOP('',(#1271,#1272,#1273,#1274));
#286=EDGE_LOOP('',(#1275,#1276,#1277,#1278));
#287=EDGE_LOOP('',(#1279,#1280,#1281,#1282));
#288=EDGE_LOOP('',(#1283,#1284,#1285,#1286));
#289=LINE('',#1915,#447);
#290=LINE('',#1917,#448);
#291=LINE('',#1919,#449);
#292=LINE('',#1920,#450);
#293=LINE('',#1923,#451);
#294=LINE('',#1925,#452);
#295=LINE('',#1926,#453);
#296=LINE('',#1929,#454);
#297=LINE('',#1931,#455);
#298=LINE('',#1932,#456);
#299=LINE('',#1934,#457);
#300=LINE('',#1935,#458);
#301=LINE('',#1939,#459);
#302=LINE('',#1941,#460);
#303=LINE('',#1943,#461);
#304=LINE('',#1944,#462);
#305=LINE('',#1947,#463);
#306=LINE('',#1949,#464);
#307=LINE('',#1950,#465);
#308=LINE('',#1953,#466);
#309=LINE('',#1955,#467);
#310=LINE('',#1956,#468);
#311=LINE('',#1958,#469);
#312=LINE('',#1959,#470);
#313=LINE('',#1963,#471);
#314=LINE('',#1965,#472);
#315=LINE('',#1967,#473);
#316=LINE('',#1968,#474);
#317=LINE('',#1971,#475);
#318=LINE('',#1973,#476);
#319=LINE('',#1974,#477);
#320=LINE('',#1977,#478);
#321=LINE('',#1979,#479);
#322=LINE('',#1980,#480);
#323=LINE('',#1982,#481);
#324=LINE('',#1983,#482);
#325=LINE('',#1987,#483);
#326=LINE('',#1989,#484);
#327=LINE('',#1991,#485);
#328=LINE('',#1992,#486);
#329=LINE('',#1995,#487);
#330=LINE('',#1997,#488);
#331=LINE('',#1998,#489);
#332=LINE('',#2001,#490);
#333=LINE('',#2003,#491);
#334=LINE('',#2004,#492);
#335=LINE('',#2006,#493);
#336=LINE('',#2007,#494);
#337=LINE('',#2011,#495);
#338=LINE('',#2013,#496);
#339=LINE('',#2015,#497);
#340=LINE('',#2016,#498);
#341=LINE('',#2019,#499);
#342=LINE('',#2021,#500);
#343=LINE('',#2022,#501);
#344=LINE('',#2025,#502);
#345=LINE('',#2027,#503);
#346=LINE('',#2028,#504);
#347=LINE('',#2030,#505);
#348=LINE('',#2031,#506);
#349=LINE('',#2035,#507);
#350=LINE('',#2037,#508);
#351=LINE('',#2039,#509);
#352=LINE('',#2040,#510);
#353=LINE('',#2043,#511);
#354=LINE('',#2045,#512);
#355=LINE('',#2046,#513);
#356=LINE('',#2049,#514);
#357=LINE('',#2051,#515);
#358=LINE('',#2052,#516);
#359=LINE('',#2054,#517);
#360=LINE('',#2055,#518);
#361=LINE('',#2060,#519);
#362=LINE('',#2065,#520);
#363=LINE('',#2067,#521);
#364=LINE('',#2069,#522);
#365=LINE('',#2070,#523);
#366=LINE('',#2073,#524);
#367=LINE('',#2075,#525);
#368=LINE('',#2076,#526);
#369=LINE('',#2079,#527);
#370=LINE('',#2081,#528);
#371=LINE('',#2082,#529);
#372=LINE('',#2084,#530);
#373=LINE('',#2085,#531);
#374=LINE('',#2090,#532);
#375=LINE('',#2096,#533);
#376=LINE('',#2103,#534);
#377=LINE('',#2110,#535);
#378=LINE('',#2117,#536);
#379=LINE('',#2124,#537);
#380=LINE('',#2131,#538);
#381=LINE('',#2138,#539);
#382=LINE('',#2145,#540);
#383=LINE('',#2151,#541);
#384=LINE('',#2153,#542);
#385=LINE('',#2155,#543);
#386=LINE('',#2156,#544);
#387=LINE('',#2159,#545);
#388=LINE('',#2161,#546);
#389=LINE('',#2162,#547);
#390=LINE('',#2165,#548);
#391=LINE('',#2167,#549);
#392=LINE('',#2168,#550);
#393=LINE('',#2170,#551);
#394=LINE('',#2171,#552);
#395=LINE('',#2176,#553);
#396=LINE('',#2178,#554);
#397=LINE('',#2180,#555);
#398=LINE('',#2181,#556);
#399=LINE('',#2184,#557);
#400=LINE('',#2186,#558);
#401=LINE('',#2187,#559);
#402=LINE('',#2190,#560);
#403=LINE('',#2192,#561);
#404=LINE('',#2193,#562);
#405=LINE('',#2195,#563);
#406=LINE('',#2196,#564);
#407=LINE('',#2203,#565);
#408=LINE('',#2209,#566);
#409=LINE('',#2215,#567);
#410=LINE('',#2221,#568);
#411=LINE('',#2226,#569);
#412=LINE('',#2228,#570);
#413=LINE('',#2230,#571);
#414=LINE('',#2231,#572);
#415=LINE('',#2234,#573);
#416=LINE('',#2236,#574);
#417=LINE('',#2237,#575);
#418=LINE('',#2240,#576);
#419=LINE('',#2242,#577);
#420=LINE('',#2243,#578);
#421=LINE('',#2245,#579);
#422=LINE('',#2246,#580);
#423=LINE('',#2252,#581);
#424=LINE('',#2254,#582);
#425=LINE('',#2256,#583);
#426=LINE('',#2257,#584);
#427=LINE('',#2260,#585);
#428=LINE('',#2262,#586);
#429=LINE('',#2263,#587);
#430=LINE('',#2266,#588);
#431=LINE('',#2268,#589);
#432=LINE('',#2269,#590);
#433=LINE('',#2271,#591);
#434=LINE('',#2272,#592);
#435=LINE('',#2277,#593);
#436=LINE('',#2279,#594);
#437=LINE('',#2281,#595);
#438=LINE('',#2282,#596);
#439=LINE('',#2286,#597);
#440=LINE('',#2287,#598);
#441=LINE('',#2288,#599);
#442=LINE('',#2291,#600);
#443=LINE('',#2292,#601);
#444=LINE('',#2295,#602);
#445=LINE('',#2296,#603);
#446=LINE('',#2298,#604);
#447=VECTOR('',#1543,10.);
#448=VECTOR('',#1544,10.);
#449=VECTOR('',#1545,10.);
#450=VECTOR('',#1546,10.);
#451=VECTOR('',#1549,10.);
#452=VECTOR('',#1550,10.);
#453=VECTOR('',#1551,10.);
#454=VECTOR('',#1554,10.);
#455=VECTOR('',#1555,10.);
#456=VECTOR('',#1556,10.);
#457=VECTOR('',#1559,10.);
#458=VECTOR('',#1560,10.);
#459=VECTOR('',#1563,10.);
#460=VECTOR('',#1564,10.);
#461=VECTOR('',#1565,10.);
#462=VECTOR('',#1566,10.);
#463=VECTOR('',#1569,10.);
#464=VECTOR('',#1570,10.);
#465=VECTOR('',#1571,10.);
#466=VECTOR('',#1574,10.);
#467=VECTOR('',#1575,10.);
#468=VECTOR('',#1576,10.);
#469=VECTOR('',#1579,10.);
#470=VECTOR('',#1580,10.);
#471=VECTOR('',#1583,10.);
#472=VECTOR('',#1584,10.);
#473=VECTOR('',#1585,10.);
#474=VECTOR('',#1586,10.);
#475=VECTOR('',#1589,10.);
#476=VECTOR('',#1590,10.);
#477=VECTOR('',#1591,10.);
#478=VECTOR('',#1594,10.);
#479=VECTOR('',#1595,10.);
#480=VECTOR('',#1596,10.);
#481=VECTOR('',#1599,10.);
#482=VECTOR('',#1600,10.);
#483=VECTOR('',#1603,10.);
#484=VECTOR('',#1604,10.);
#485=VECTOR('',#1605,10.);
#486=VECTOR('',#1606,10.);
#487=VECTOR('',#1609,10.);
#488=VECTOR('',#1610,10.);
#489=VECTOR('',#1611,10.);
#490=VECTOR('',#1614,10.);
#491=VECTOR('',#1615,10.);
#492=VECTOR('',#1616,10.);
#493=VECTOR('',#1619,10.);
#494=VECTOR('',#1620,10.);
#495=VECTOR('',#1623,10.);
#496=VECTOR('',#1624,10.);
#497=VECTOR('',#1625,10.);
#498=VECTOR('',#1626,10.);
#499=VECTOR('',#1629,10.);
#500=VECTOR('',#1630,10.);
#501=VECTOR('',#1631,10.);
#502=VECTOR('',#1634,10.);
#503=VECTOR('',#1635,10.);
#504=VECTOR('',#1636,10.);
#505=VECTOR('',#1639,10.);
#506=VECTOR('',#1640,10.);
#507=VECTOR('',#1643,10.);
#508=VECTOR('',#1644,10.);
#509=VECTOR('',#1645,10.);
#510=VECTOR('',#1646,10.);
#511=VECTOR('',#1649,10.);
#512=VECTOR('',#1650,10.);
#513=VECTOR('',#1651,10.);
#514=VECTOR('',#1654,10.);
#515=VECTOR('',#1655,10.);
#516=VECTOR('',#1656,10.);
#517=VECTOR('',#1659,10.);
#518=VECTOR('',#1660,10.);
#519=VECTOR('',#1665,22.5);
#520=VECTOR('',#1670,10.);
#521=VECTOR('',#1671,10.);
#522=VECTOR('',#1672,10.);
#523=VECTOR('',#1673,10.);
#524=VECTOR('',#1676,10.);
#525=VECTOR('',#1677,10.);
#526=VECTOR('',#1678,10.);
#527=VECTOR('',#1681,10.);
#528=VECTOR('',#1682,10.);
#529=VECTOR('',#1683,10.);
#530=VECTOR('',#1686,10.);
#531=VECTOR('',#1687,10.);
#532=VECTOR('',#1692,22.5);
#533=VECTOR('',#1699,16.0000002384186);
#534=VECTOR('',#1708,15.9999950975207);
#535=VECTOR('',#1717,16.0000061988858);
#536=VECTOR('',#1726,16.);
#537=VECTOR('',#1735,22.5);
#538=VECTOR('',#1744,22.5);
#539=VECTOR('',#1753,22.5);
#540=VECTOR('',#1762,22.5);
#541=VECTOR('',#1769,10.);
#542=VECTOR('',#1770,10.);
#543=VECTOR('',#1771,10.);
#544=VECTOR('',#1772,10.);
#545=VECTOR('',#1775,10.);
#546=VECTOR('',#1776,10.);
#547=VECTOR('',#1777,10.);
#548=VECTOR('',#1780,10.);
#549=VECTOR('',#1781,10.);
#550=VECTOR('',#1782,10.);
#551=VECTOR('',#1785,10.);
#552=VECTOR('',#1786,10.);
#553=VECTOR('',#1791,10.);
#554=VECTOR('',#1792,10.);
#555=VECTOR('',#1793,10.);
#556=VECTOR('',#1794,10.);
#557=VECTOR('',#1797,10.);
#558=VECTOR('',#1798,10.);
#559=VECTOR('',#1799,10.);
#560=VECTOR('',#1802,10.);
#561=VECTOR('',#1803,10.);
#562=VECTOR('',#1804,10.);
#563=VECTOR('',#1807,10.);
#564=VECTOR('',#1808,10.);
#565=VECTOR('',#1817,22.5);
#566=VECTOR('',#1824,22.5);
#567=VECTOR('',#1831,22.5);
#568=VECTOR('',#1838,22.5);
#569=VECTOR('',#1843,10.);
#570=VECTOR('',#1844,10.);
#571=VECTOR('',#1845,10.);
#572=VECTOR('',#1846,10.);
#573=VECTOR('',#1849,10.);
#574=VECTOR('',#1850,10.);
#575=VECTOR('',#1851,10.);
#576=VECTOR('',#1854,10.);
#577=VECTOR('',#1855,10.);
#578=VECTOR('',#1856,10.);
#579=VECTOR('',#1859,10.);
#580=VECTOR('',#1860,10.);
#581=VECTOR('',#1867,10.);
#582=VECTOR('',#1868,10.);
#583=VECTOR('',#1869,10.);
#584=VECTOR('',#1870,10.);
#585=VECTOR('',#1873,10.);
#586=VECTOR('',#1874,10.);
#587=VECTOR('',#1875,10.);
#588=VECTOR('',#1878,10.);
#589=VECTOR('',#1879,10.);
#590=VECTOR('',#1880,10.);
#591=VECTOR('',#1883,10.);
#592=VECTOR('',#1884,10.);
#593=VECTOR('',#1889,10.);
#594=VECTOR('',#1890,10.);
#595=VECTOR('',#1891,10.);
#596=VECTOR('',#1892,10.);
#597=VECTOR('',#1895,10.);
#598=VECTOR('',#1896,10.);
#599=VECTOR('',#1897,10.);
#600=VECTOR('',#1900,10.);
#601=VECTOR('',#1901,10.);
#602=VECTOR('',#1904,10.);
#603=VECTOR('',#1905,10.);
#604=VECTOR('',#1908,10.);
#605=VERTEX_POINT('',#1913);
#606=VERTEX_POINT('',#1914);
#607=VERTEX_POINT('',#1916);
#608=VERTEX_POINT('',#1918);
#609=VERTEX_POINT('',#1922);
#610=VERTEX_POINT('',#1924);
#611=VERTEX_POINT('',#1928);
#612=VERTEX_POINT('',#1930);
#613=VERTEX_POINT('',#1937);
#614=VERTEX_POINT('',#1938);
#615=VERTEX_POINT('',#1940);
#616=VERTEX_POINT('',#1942);
#617=VERTEX_POINT('',#1946);
#618=VERTEX_POINT('',#1948);
#619=VERTEX_POINT('',#1952);
#620=VERTEX_POINT('',#1954);
#621=VERTEX_POINT('',#1961);
#622=VERTEX_POINT('',#1962);
#623=VERTEX_POINT('',#1964);
#624=VERTEX_POINT('',#1966);
#625=VERTEX_POINT('',#1970);
#626=VERTEX_POINT('',#1972);
#627=VERTEX_POINT('',#1976);
#628=VERTEX_POINT('',#1978);
#629=VERTEX_POINT('',#1985);
#630=VERTEX_POINT('',#1986);
#631=VERTEX_POINT('',#1988);
#632=VERTEX_POINT('',#1990);
#633=VERTEX_POINT('',#1994);
#634=VERTEX_POINT('',#1996);
#635=VERTEX_POINT('',#2000);
#636=VERTEX_POINT('',#2002);
#637=VERTEX_POINT('',#2009);
#638=VERTEX_POINT('',#2010);
#639=VERTEX_POINT('',#2012);
#640=VERTEX_POINT('',#2014);
#641=VERTEX_POINT('',#2018);
#642=VERTEX_POINT('',#2020);
#643=VERTEX_POINT('',#2024);
#644=VERTEX_POINT('',#2026);
#645=VERTEX_POINT('',#2033);
#646=VERTEX_POINT('',#2034);
#647=VERTEX_POINT('',#2036);
#648=VERTEX_POINT('',#2038);
#649=VERTEX_POINT('',#2042);
#650=VERTEX_POINT('',#2044);
#651=VERTEX_POINT('',#2048);
#652=VERTEX_POINT('',#2050);
#653=VERTEX_POINT('',#2057);
#654=VERTEX_POINT('',#2059);
#655=VERTEX_POINT('',#2063);
#656=VERTEX_POINT('',#2064);
#657=VERTEX_POINT('',#2066);
#658=VERTEX_POINT('',#2068);
#659=VERTEX_POINT('',#2072);
#660=VERTEX_POINT('',#2074);
#661=VERTEX_POINT('',#2078);
#662=VERTEX_POINT('',#2080);
#663=VERTEX_POINT('',#2087);
#664=VERTEX_POINT('',#2089);
#665=VERTEX_POINT('',#2093);
#666=VERTEX_POINT('',#2095);
#667=VERTEX_POINT('',#2100);
#668=VERTEX_POINT('',#2102);
#669=VERTEX_POINT('',#2107);
#670=VERTEX_POINT('',#2109);
#671=VERTEX_POINT('',#2114);
#672=VERTEX_POINT('',#2116);
#673=VERTEX_POINT('',#2121);
#674=VERTEX_POINT('',#2123);
#675=VERTEX_POINT('',#2128);
#676=VERTEX_POINT('',#2130);
#677=VERTEX_POINT('',#2135);
#678=VERTEX_POINT('',#2137);
#679=VERTEX_POINT('',#2142);
#680=VERTEX_POINT('',#2144);
#681=VERTEX_POINT('',#2149);
#682=VERTEX_POINT('',#2150);
#683=VERTEX_POINT('',#2152);
#684=VERTEX_POINT('',#2154);
#685=VERTEX_POINT('',#2158);
#686=VERTEX_POINT('',#2160);
#687=VERTEX_POINT('',#2164);
#688=VERTEX_POINT('',#2166);
#689=VERTEX_POINT('',#2174);
#690=VERTEX_POINT('',#2175);
#691=VERTEX_POINT('',#2177);
#692=VERTEX_POINT('',#2179);
#693=VERTEX_POINT('',#2183);
#694=VERTEX_POINT('',#2185);
#695=VERTEX_POINT('',#2189);
#696=VERTEX_POINT('',#2191);
#697=VERTEX_POINT('',#2200);
#698=VERTEX_POINT('',#2202);
#699=VERTEX_POINT('',#2206);
#700=VERTEX_POINT('',#2208);
#701=VERTEX_POINT('',#2212);
#702=VERTEX_POINT('',#2214);
#703=VERTEX_POINT('',#2218);
#704=VERTEX_POINT('',#2220);
#705=VERTEX_POINT('',#2224);
#706=VERTEX_POINT('',#2225);
#707=VERTEX_POINT('',#2227);
#708=VERTEX_POINT('',#2229);
#709=VERTEX_POINT('',#2233);
#710=VERTEX_POINT('',#2235);
#711=VERTEX_POINT('',#2239);
#712=VERTEX_POINT('',#2241);
#713=VERTEX_POINT('',#2250);
#714=VERTEX_POINT('',#2251);
#715=VERTEX_POINT('',#2253);
#716=VERTEX_POINT('',#2255);
#717=VERTEX_POINT('',#2259);
#718=VERTEX_POINT('',#2261);
#719=VERTEX_POINT('',#2265);
#720=VERTEX_POINT('',#2267);
#721=VERTEX_POINT('',#2275);
#722=VERTEX_POINT('',#2276);
#723=VERTEX_POINT('',#2278);
#724=VERTEX_POINT('',#2280);
#725=VERTEX_POINT('',#2284);
#726=VERTEX_POINT('',#2285);
#727=VERTEX_POINT('',#2290);
#728=VERTEX_POINT('',#2294);
#729=EDGE_CURVE('',#605,#606,#289,.T.);
#730=EDGE_CURVE('',#607,#605,#290,.T.);
#731=EDGE_CURVE('',#608,#607,#291,.T.);
#732=EDGE_CURVE('',#608,#606,#292,.T.);
#733=EDGE_CURVE('',#606,#609,#293,.T.);
#734=EDGE_CURVE('',#610,#608,#294,.T.);
#735=EDGE_CURVE('',#610,#609,#295,.T.);
#736=EDGE_CURVE('',#609,#611,#296,.T.);
#737=EDGE_CURVE('',#612,#610,#297,.T.);
#738=EDGE_CURVE('',#612,#611,#298,.T.);
#739=EDGE_CURVE('',#611,#605,#299,.T.);
#740=EDGE_CURVE('',#607,#612,#300,.T.);
#741=EDGE_CURVE('',#613,#614,#301,.T.);
#742=EDGE_CURVE('',#615,#613,#302,.T.);
#743=EDGE_CURVE('',#616,#615,#303,.T.);
#744=EDGE_CURVE('',#616,#614,#304,.T.);
#745=EDGE_CURVE('',#614,#617,#305,.T.);
#746=EDGE_CURVE('',#618,#616,#306,.T.);
#747=EDGE_CURVE('',#618,#617,#307,.T.);
#748=EDGE_CURVE('',#617,#619,#308,.T.);
#749=EDGE_CURVE('',#620,#618,#309,.T.);
#750=EDGE_CURVE('',#620,#619,#310,.T.);
#751=EDGE_CURVE('',#619,#613,#311,.T.);
#752=EDGE_CURVE('',#615,#620,#312,.T.);
#753=EDGE_CURVE('',#621,#622,#313,.T.);
#754=EDGE_CURVE('',#623,#621,#314,.T.);
#755=EDGE_CURVE('',#624,#623,#315,.T.);
#756=EDGE_CURVE('',#624,#622,#316,.T.);
#757=EDGE_CURVE('',#622,#625,#317,.T.);
#758=EDGE_CURVE('',#626,#624,#318,.T.);
#759=EDGE_CURVE('',#626,#625,#319,.T.);
#760=EDGE_CURVE('',#625,#627,#320,.T.);
#761=EDGE_CURVE('',#628,#626,#321,.T.);
#762=EDGE_CURVE('',#628,#627,#322,.T.);
#763=EDGE_CURVE('',#627,#621,#323,.T.);
#764=EDGE_CURVE('',#623,#628,#324,.T.);
#765=EDGE_CURVE('',#629,#630,#325,.T.);
#766=EDGE_CURVE('',#631,#629,#326,.T.);
#767=EDGE_CURVE('',#632,#631,#327,.T.);
#768=EDGE_CURVE('',#632,#630,#328,.T.);
#769=EDGE_CURVE('',#630,#633,#329,.T.);
#770=EDGE_CURVE('',#634,#632,#330,.T.);
#771=EDGE_CURVE('',#634,#633,#331,.T.);
#772=EDGE_CURVE('',#633,#635,#332,.T.);
#773=EDGE_CURVE('',#636,#634,#333,.T.);
#774=EDGE_CURVE('',#636,#635,#334,.T.);
#775=EDGE_CURVE('',#635,#629,#335,.T.);
#776=EDGE_CURVE('',#631,#636,#336,.T.);
#777=EDGE_CURVE('',#637,#638,#337,.T.);
#778=EDGE_CURVE('',#639,#637,#338,.T.);
#779=EDGE_CURVE('',#640,#639,#339,.T.);
#780=EDGE_CURVE('',#640,#638,#340,.T.);
#781=EDGE_CURVE('',#638,#641,#341,.T.);
#782=EDGE_CURVE('',#642,#640,#342,.T.);
#783=EDGE_CURVE('',#642,#641,#343,.T.);
#784=EDGE_CURVE('',#641,#643,#344,.T.);
#785=EDGE_CURVE('',#644,#642,#345,.T.);
#786=EDGE_CURVE('',#644,#643,#346,.T.);
#787=EDGE_CURVE('',#643,#637,#347,.T.);
#788=EDGE_CURVE('',#639,#644,#348,.T.);
#789=EDGE_CURVE('',#645,#646,#349,.T.);
#790=EDGE_CURVE('',#647,#645,#350,.T.);
#791=EDGE_CURVE('',#648,#647,#351,.T.);
#792=EDGE_CURVE('',#648,#646,#352,.T.);
#793=EDGE_CURVE('',#646,#649,#353,.T.);
#794=EDGE_CURVE('',#650,#648,#354,.T.);
#795=EDGE_CURVE('',#650,#649,#355,.T.);
#796=EDGE_CURVE('',#649,#651,#356,.T.);
#797=EDGE_CURVE('',#652,#650,#357,.T.);
#798=EDGE_CURVE('',#652,#651,#358,.T.);
#799=EDGE_CURVE('',#651,#645,#359,.T.);
#800=EDGE_CURVE('',#647,#652,#360,.T.);
#801=EDGE_CURVE('',#653,#653,#55,.T.);
#802=EDGE_CURVE('',#653,#654,#361,.T.);
#803=EDGE_CURVE('',#654,#654,#56,.T.);
#804=EDGE_CURVE('',#655,#656,#362,.T.);
#805=EDGE_CURVE('',#657,#655,#363,.T.);
#806=EDGE_CURVE('',#658,#657,#364,.T.);
#807=EDGE_CURVE('',#658,#656,#365,.T.);
#808=EDGE_CURVE('',#656,#659,#366,.T.);
#809=EDGE_CURVE('',#660,#658,#367,.T.);
#810=EDGE_CURVE('',#660,#659,#368,.T.);
#811=EDGE_CURVE('',#659,#661,#369,.T.);
#812=EDGE_CURVE('',#662,#660,#370,.T.);
#813=EDGE_CURVE('',#662,#661,#371,.T.);
#814=EDGE_CURVE('',#661,#655,#372,.T.);
#815=EDGE_CURVE('',#657,#662,#373,.T.);
#816=EDGE_CURVE('',#663,#663,#57,.T.);
#817=EDGE_CURVE('',#663,#664,#374,.T.);
#818=EDGE_CURVE('',#664,#664,#58,.T.);
#819=EDGE_CURVE('',#665,#665,#59,.T.);
#820=EDGE_CURVE('',#665,#666,#375,.T.);
#821=EDGE_CURVE('',#666,#666,#60,.T.);
#822=EDGE_CURVE('',#667,#667,#61,.T.);
#823=EDGE_CURVE('',#667,#668,#376,.T.);
#824=EDGE_CURVE('',#668,#668,#62,.T.);
#825=EDGE_CURVE('',#669,#669,#63,.T.);
#826=EDGE_CURVE('',#669,#670,#377,.T.);
#827=EDGE_CURVE('',#670,#670,#64,.T.);
#828=EDGE_CURVE('',#671,#671,#65,.T.);
#829=EDGE_CURVE('',#671,#672,#378,.T.);
#830=EDGE_CURVE('',#672,#672,#66,.T.);
#831=EDGE_CURVE('',#673,#673,#67,.T.);
#832=EDGE_CURVE('',#673,#674,#379,.T.);
#833=EDGE_CURVE('',#674,#674,#68,.T.);
#834=EDGE_CURVE('',#675,#675,#69,.T.);
#835=EDGE_CURVE('',#675,#676,#380,.T.);
#836=EDGE_CURVE('',#676,#676,#70,.T.);
#837=EDGE_CURVE('',#677,#677,#71,.T.);
#838=EDGE_CURVE('',#677,#678,#381,.T.);
#839=EDGE_CURVE('',#678,#678,#72,.T.);
#840=EDGE_CURVE('',#679,#679,#73,.T.);
#841=EDGE_CURVE('',#679,#680,#382,.T.);
#842=EDGE_CURVE('',#680,#680,#74,.T.);
#843=EDGE_CURVE('',#681,#682,#383,.T.);
#844=EDGE_CURVE('',#681,#683,#384,.T.);
#845=EDGE_CURVE('',#683,#684,#385,.T.);
#846=EDGE_CURVE('',#682,#684,#386,.T.);
#847=EDGE_CURVE('',#685,#681,#387,.T.);
#848=EDGE_CURVE('',#685,#686,#388,.T.);
#849=EDGE_CURVE('',#686,#683,#389,.T.);
#850=EDGE_CURVE('',#687,#685,#390,.T.);
#851=EDGE_CURVE('',#687,#688,#391,.T.);
#852=EDGE_CURVE('',#688,#686,#392,.T.);
#853=EDGE_CURVE('',#682,#687,#393,.T.);
#854=EDGE_CURVE('',#684,#688,#394,.T.);
#855=EDGE_CURVE('',#689,#690,#395,.T.);
#856=EDGE_CURVE('',#690,#691,#396,.T.);
#857=EDGE_CURVE('',#692,#691,#397,.T.);
#858=EDGE_CURVE('',#689,#692,#398,.T.);
#859=EDGE_CURVE('',#693,#689,#399,.T.);
#860=EDGE_CURVE('',#694,#692,#400,.T.);
#861=EDGE_CURVE('',#693,#694,#401,.T.);
#862=EDGE_CURVE('',#695,#693,#402,.T.);
#863=EDGE_CURVE('',#696,#694,#403,.T.);
#864=EDGE_CURVE('',#695,#696,#404,.T.);
#865=EDGE_CURVE('',#690,#695,#405,.T.);
#866=EDGE_CURVE('',#691,#696,#406,.T.);
#867=EDGE_CURVE('',#697,#697,#75,.T.);
#868=EDGE_CURVE('',#697,#698,#407,.T.);
#869=EDGE_CURVE('',#698,#698,#76,.T.);
#870=EDGE_CURVE('',#699,#699,#77,.T.);
#871=EDGE_CURVE('',#699,#700,#408,.T.);
#872=EDGE_CURVE('',#700,#700,#78,.T.);
#873=EDGE_CURVE('',#701,#701,#79,.T.);
#874=EDGE_CURVE('',#701,#702,#409,.T.);
#875=EDGE_CURVE('',#702,#702,#80,.T.);
#876=EDGE_CURVE('',#703,#703,#81,.T.);
#877=EDGE_CURVE('',#703,#704,#410,.T.);
#878=EDGE_CURVE('',#704,#704,#82,.T.);
#879=EDGE_CURVE('',#705,#706,#411,.T.);
#880=EDGE_CURVE('',#706,#707,#412,.T.);
#881=EDGE_CURVE('',#708,#707,#413,.T.);
#882=EDGE_CURVE('',#705,#708,#414,.T.);
#883=EDGE_CURVE('',#709,#705,#415,.T.);
#884=EDGE_CURVE('',#710,#708,#416,.T.);
#885=EDGE_CURVE('',#709,#710,#417,.T.);
#886=EDGE_CURVE('',#711,#709,#418,.T.);
#887=EDGE_CURVE('',#712,#710,#419,.T.);
#888=EDGE_CURVE('',#711,#712,#420,.T.);
#889=EDGE_CURVE('',#706,#711,#421,.T.);
#890=EDGE_CURVE('',#707,#712,#422,.T.);
#891=EDGE_CURVE('',#713,#714,#423,.T.);
#892=EDGE_CURVE('',#714,#715,#424,.T.);
#893=EDGE_CURVE('',#716,#715,#425,.T.);
#894=EDGE_CURVE('',#713,#716,#426,.T.);
#895=EDGE_CURVE('',#717,#713,#427,.T.);
#896=EDGE_CURVE('',#718,#716,#428,.T.);
#897=EDGE_CURVE('',#717,#718,#429,.T.);
#898=EDGE_CURVE('',#719,#717,#430,.T.);
#899=EDGE_CURVE('',#720,#718,#431,.T.);
#900=EDGE_CURVE('',#719,#720,#432,.T.);
#901=EDGE_CURVE('',#714,#719,#433,.T.);
#902=EDGE_CURVE('',#715,#720,#434,.T.);
#903=EDGE_CURVE('',#721,#722,#435,.T.);
#904=EDGE_CURVE('',#722,#723,#436,.T.);
#905=EDGE_CURVE('',#723,#724,#437,.T.);
#906=EDGE_CURVE('',#724,#721,#438,.T.);
#907=EDGE_CURVE('',#725,#726,#439,.T.);
#908=EDGE_CURVE('',#725,#722,#440,.T.);
#909=EDGE_CURVE('',#726,#721,#441,.T.);
#910=EDGE_CURVE('',#726,#727,#442,.T.);
#911=EDGE_CURVE('',#727,#724,#443,.T.);
#912=EDGE_CURVE('',#727,#728,#444,.T.);
#913=EDGE_CURVE('',#728,#723,#445,.T.);
#914=EDGE_CURVE('',#728,#725,#446,.T.);
#915=ORIENTED_EDGE('',*,*,#729,.F.);
#916=ORIENTED_EDGE('',*,*,#730,.F.);
#917=ORIENTED_EDGE('',*,*,#731,.F.);
#918=ORIENTED_EDGE('',*,*,#732,.T.);
#919=ORIENTED_EDGE('',*,*,#733,.F.);
#920=ORIENTED_EDGE('',*,*,#732,.F.);
#921=ORIENTED_EDGE('',*,*,#734,.F.);
#922=ORIENTED_EDGE('',*,*,#735,.T.);
#923=ORIENTED_EDGE('',*,*,#736,.F.);
#924=ORIENTED_EDGE('',*,*,#735,.F.);
#925=ORIENTED_EDGE('',*,*,#737,.F.);
#926=ORIENTED_EDGE('',*,*,#738,.T.);
#927=ORIENTED_EDGE('',*,*,#739,.F.);
#928=ORIENTED_EDGE('',*,*,#738,.F.);
#929=ORIENTED_EDGE('',*,*,#740,.F.);
#930=ORIENTED_EDGE('',*,*,#730,.T.);
#931=ORIENTED_EDGE('',*,*,#741,.F.);
#932=ORIENTED_EDGE('',*,*,#742,.F.);
#933=ORIENTED_EDGE('',*,*,#743,.F.);
#934=ORIENTED_EDGE('',*,*,#744,.T.);
#935=ORIENTED_EDGE('',*,*,#745,.F.);
#936=ORIENTED_EDGE('',*,*,#744,.F.);
#937=ORIENTED_EDGE('',*,*,#746,.F.);
#938=ORIENTED_EDGE('',*,*,#747,.T.);
#939=ORIENTED_EDGE('',*,*,#748,.F.);
#940=ORIENTED_EDGE('',*,*,#747,.F.);
#941=ORIENTED_EDGE('',*,*,#749,.F.);
#942=ORIENTED_EDGE('',*,*,#750,.T.);
#943=ORIENTED_EDGE('',*,*,#751,.F.);
#944=ORIENTED_EDGE('',*,*,#750,.F.);
#945=ORIENTED_EDGE('',*,*,#752,.F.);
#946=ORIENTED_EDGE('',*,*,#742,.T.);
#947=ORIENTED_EDGE('',*,*,#753,.F.);
#948=ORIENTED_EDGE('',*,*,#754,.F.);
#949=ORIENTED_EDGE('',*,*,#755,.F.);
#950=ORIENTED_EDGE('',*,*,#756,.T.);
#951=ORIENTED_EDGE('',*,*,#757,.F.);
#952=ORIENTED_EDGE('',*,*,#756,.F.);
#953=ORIENTED_EDGE('',*,*,#758,.F.);
#954=ORIENTED_EDGE('',*,*,#759,.T.);
#955=ORIENTED_EDGE('',*,*,#760,.F.);
#956=ORIENTED_EDGE('',*,*,#759,.F.);
#957=ORIENTED_EDGE('',*,*,#761,.F.);
#958=ORIENTED_EDGE('',*,*,#762,.T.);
#959=ORIENTED_EDGE('',*,*,#763,.F.);
#960=ORIENTED_EDGE('',*,*,#762,.F.);
#961=ORIENTED_EDGE('',*,*,#764,.F.);
#962=ORIENTED_EDGE('',*,*,#754,.T.);
#963=ORIENTED_EDGE('',*,*,#765,.F.);
#964=ORIENTED_EDGE('',*,*,#766,.F.);
#965=ORIENTED_EDGE('',*,*,#767,.F.);
#966=ORIENTED_EDGE('',*,*,#768,.T.);
#967=ORIENTED_EDGE('',*,*,#769,.F.);
#968=ORIENTED_EDGE('',*,*,#768,.F.);
#969=ORIENTED_EDGE('',*,*,#770,.F.);
#970=ORIENTED_EDGE('',*,*,#771,.T.);
#971=ORIENTED_EDGE('',*,*,#772,.F.);
#972=ORIENTED_EDGE('',*,*,#771,.F.);
#973=ORIENTED_EDGE('',*,*,#773,.F.);
#974=ORIENTED_EDGE('',*,*,#774,.T.);
#975=ORIENTED_EDGE('',*,*,#775,.F.);
#976=ORIENTED_EDGE('',*,*,#774,.F.);
#977=ORIENTED_EDGE('',*,*,#776,.F.);
#978=ORIENTED_EDGE('',*,*,#766,.T.);
#979=ORIENTED_EDGE('',*,*,#777,.F.);
#980=ORIENTED_EDGE('',*,*,#778,.F.);
#981=ORIENTED_EDGE('',*,*,#779,.F.);
#982=ORIENTED_EDGE('',*,*,#780,.T.);
#983=ORIENTED_EDGE('',*,*,#781,.F.);
#984=ORIENTED_EDGE('',*,*,#780,.F.);
#985=ORIENTED_EDGE('',*,*,#782,.F.);
#986=ORIENTED_EDGE('',*,*,#783,.T.);
#987=ORIENTED_EDGE('',*,*,#784,.F.);
#988=ORIENTED_EDGE('',*,*,#783,.F.);
#989=ORIENTED_EDGE('',*,*,#785,.F.);
#990=ORIENTED_EDGE('',*,*,#786,.T.);
#991=ORIENTED_EDGE('',*,*,#787,.F.);
#992=ORIENTED_EDGE('',*,*,#786,.F.);
#993=ORIENTED_EDGE('',*,*,#788,.F.);
#994=ORIENTED_EDGE('',*,*,#778,.T.);
#995=ORIENTED_EDGE('',*,*,#789,.F.);
#996=ORIENTED_EDGE('',*,*,#790,.F.);
#997=ORIENTED_EDGE('',*,*,#791,.F.);
#998=ORIENTED_EDGE('',*,*,#792,.T.);
#999=ORIENTED_EDGE('',*,*,#793,.F.);
#1000=ORIENTED_EDGE('',*,*,#792,.F.);
#1001=ORIENTED_EDGE('',*,*,#794,.F.);
#1002=ORIENTED_EDGE('',*,*,#795,.T.);
#1003=ORIENTED_EDGE('',*,*,#796,.F.);
#1004=ORIENTED_EDGE('',*,*,#795,.F.);
#1005=ORIENTED_EDGE('',*,*,#797,.F.);
#1006=ORIENTED_EDGE('',*,*,#798,.T.);
#1007=ORIENTED_EDGE('',*,*,#799,.F.);
#1008=ORIENTED_EDGE('',*,*,#798,.F.);
#1009=ORIENTED_EDGE('',*,*,#800,.F.);
#1010=ORIENTED_EDGE('',*,*,#790,.T.);
#1011=ORIENTED_EDGE('',*,*,#801,.F.);
#1012=ORIENTED_EDGE('',*,*,#802,.T.);
#1013=ORIENTED_EDGE('',*,*,#803,.F.);
#1014=ORIENTED_EDGE('',*,*,#802,.F.);
#1015=ORIENTED_EDGE('',*,*,#804,.F.);
#1016=ORIENTED_EDGE('',*,*,#805,.F.);
#1017=ORIENTED_EDGE('',*,*,#806,.F.);
#1018=ORIENTED_EDGE('',*,*,#807,.T.);
#1019=ORIENTED_EDGE('',*,*,#808,.F.);
#1020=ORIENTED_EDGE('',*,*,#807,.F.);
#1021=ORIENTED_EDGE('',*,*,#809,.F.);
#1022=ORIENTED_EDGE('',*,*,#810,.T.);
#1023=ORIENTED_EDGE('',*,*,#811,.F.);
#1024=ORIENTED_EDGE('',*,*,#810,.F.);
#1025=ORIENTED_EDGE('',*,*,#812,.F.);
#1026=ORIENTED_EDGE('',*,*,#813,.T.);
#1027=ORIENTED_EDGE('',*,*,#814,.F.);
#1028=ORIENTED_EDGE('',*,*,#813,.F.);
#1029=ORIENTED_EDGE('',*,*,#815,.F.);
#1030=ORIENTED_EDGE('',*,*,#805,.T.);
#1031=ORIENTED_EDGE('',*,*,#816,.F.);
#1032=ORIENTED_EDGE('',*,*,#817,.T.);
#1033=ORIENTED_EDGE('',*,*,#818,.F.);
#1034=ORIENTED_EDGE('',*,*,#817,.F.);
#1035=ORIENTED_EDGE('',*,*,#819,.F.);
#1036=ORIENTED_EDGE('',*,*,#820,.T.);
#1037=ORIENTED_EDGE('',*,*,#821,.T.);
#1038=ORIENTED_EDGE('',*,*,#820,.F.);
#1039=ORIENTED_EDGE('',*,*,#821,.F.);
#1040=ORIENTED_EDGE('',*,*,#822,.F.);
#1041=ORIENTED_EDGE('',*,*,#823,.T.);
#1042=ORIENTED_EDGE('',*,*,#824,.T.);
#1043=ORIENTED_EDGE('',*,*,#823,.F.);
#1044=ORIENTED_EDGE('',*,*,#824,.F.);
#1045=ORIENTED_EDGE('',*,*,#825,.F.);
#1046=ORIENTED_EDGE('',*,*,#826,.T.);
#1047=ORIENTED_EDGE('',*,*,#827,.T.);
#1048=ORIENTED_EDGE('',*,*,#826,.F.);
#1049=ORIENTED_EDGE('',*,*,#827,.F.);
#1050=ORIENTED_EDGE('',*,*,#828,.F.);
#1051=ORIENTED_EDGE('',*,*,#829,.T.);
#1052=ORIENTED_EDGE('',*,*,#830,.T.);
#1053=ORIENTED_EDGE('',*,*,#829,.F.);
#1054=ORIENTED_EDGE('',*,*,#830,.F.);
#1055=ORIENTED_EDGE('',*,*,#831,.F.);
#1056=ORIENTED_EDGE('',*,*,#832,.T.);
#1057=ORIENTED_EDGE('',*,*,#833,.F.);
#1058=ORIENTED_EDGE('',*,*,#832,.F.);
#1059=ORIENTED_EDGE('',*,*,#831,.T.);
#1060=ORIENTED_EDGE('',*,*,#822,.T.);
#1061=ORIENTED_EDGE('',*,*,#834,.F.);
#1062=ORIENTED_EDGE('',*,*,#835,.T.);
#1063=ORIENTED_EDGE('',*,*,#836,.F.);
#1064=ORIENTED_EDGE('',*,*,#835,.F.);
#1065=ORIENTED_EDGE('',*,*,#834,.T.);
#1066=ORIENTED_EDGE('',*,*,#828,.T.);
#1067=ORIENTED_EDGE('',*,*,#837,.F.);
#1068=ORIENTED_EDGE('',*,*,#838,.T.);
#1069=ORIENTED_EDGE('',*,*,#839,.F.);
#1070=ORIENTED_EDGE('',*,*,#838,.F.);
#1071=ORIENTED_EDGE('',*,*,#837,.T.);
#1072=ORIENTED_EDGE('',*,*,#819,.T.);
#1073=ORIENTED_EDGE('',*,*,#840,.F.);
#1074=ORIENTED_EDGE('',*,*,#841,.T.);
#1075=ORIENTED_EDGE('',*,*,#842,.F.);
#1076=ORIENTED_EDGE('',*,*,#841,.F.);
#1077=ORIENTED_EDGE('',*,*,#840,.T.);
#1078=ORIENTED_EDGE('',*,*,#825,.T.);
#1079=ORIENTED_EDGE('',*,*,#843,.F.);
#1080=ORIENTED_EDGE('',*,*,#844,.T.);
#1081=ORIENTED_EDGE('',*,*,#845,.T.);
#1082=ORIENTED_EDGE('',*,*,#846,.F.);
#1083=ORIENTED_EDGE('',*,*,#847,.F.);
#1084=ORIENTED_EDGE('',*,*,#848,.T.);
#1085=ORIENTED_EDGE('',*,*,#849,.T.);
#1086=ORIENTED_EDGE('',*,*,#844,.F.);
#1087=ORIENTED_EDGE('',*,*,#803,.T.);
#1088=ORIENTED_EDGE('',*,*,#811,.T.);
#1089=ORIENTED_EDGE('',*,*,#814,.T.);
#1090=ORIENTED_EDGE('',*,*,#804,.T.);
#1091=ORIENTED_EDGE('',*,*,#808,.T.);
#1092=ORIENTED_EDGE('',*,*,#818,.T.);
#1093=ORIENTED_EDGE('',*,*,#850,.F.);
#1094=ORIENTED_EDGE('',*,*,#851,.T.);
#1095=ORIENTED_EDGE('',*,*,#852,.T.);
#1096=ORIENTED_EDGE('',*,*,#848,.F.);
#1097=ORIENTED_EDGE('',*,*,#736,.T.);
#1098=ORIENTED_EDGE('',*,*,#739,.T.);
#1099=ORIENTED_EDGE('',*,*,#729,.T.);
#1100=ORIENTED_EDGE('',*,*,#733,.T.);
#1101=ORIENTED_EDGE('',*,*,#748,.T.);
#1102=ORIENTED_EDGE('',*,*,#751,.T.);
#1103=ORIENTED_EDGE('',*,*,#741,.T.);
#1104=ORIENTED_EDGE('',*,*,#745,.T.);
#1105=ORIENTED_EDGE('',*,*,#760,.T.);
#1106=ORIENTED_EDGE('',*,*,#763,.T.);
#1107=ORIENTED_EDGE('',*,*,#753,.T.);
#1108=ORIENTED_EDGE('',*,*,#757,.T.);
#1109=ORIENTED_EDGE('',*,*,#853,.F.);
#1110=ORIENTED_EDGE('',*,*,#846,.T.);
#1111=ORIENTED_EDGE('',*,*,#854,.T.);
#1112=ORIENTED_EDGE('',*,*,#851,.F.);
#1113=ORIENTED_EDGE('',*,*,#772,.T.);
#1114=ORIENTED_EDGE('',*,*,#775,.T.);
#1115=ORIENTED_EDGE('',*,*,#765,.T.);
#1116=ORIENTED_EDGE('',*,*,#769,.T.);
#1117=ORIENTED_EDGE('',*,*,#784,.T.);
#1118=ORIENTED_EDGE('',*,*,#787,.T.);
#1119=ORIENTED_EDGE('',*,*,#777,.T.);
#1120=ORIENTED_EDGE('',*,*,#781,.T.);
#1121=ORIENTED_EDGE('',*,*,#796,.T.);
#1122=ORIENTED_EDGE('',*,*,#799,.T.);
#1123=ORIENTED_EDGE('',*,*,#789,.T.);
#1124=ORIENTED_EDGE('',*,*,#793,.T.);
#1125=ORIENTED_EDGE('',*,*,#854,.F.);
#1126=ORIENTED_EDGE('',*,*,#845,.F.);
#1127=ORIENTED_EDGE('',*,*,#849,.F.);
#1128=ORIENTED_EDGE('',*,*,#852,.F.);
#1129=ORIENTED_EDGE('',*,*,#833,.T.);
#1130=ORIENTED_EDGE('',*,*,#836,.T.);
#1131=ORIENTED_EDGE('',*,*,#839,.T.);
#1132=ORIENTED_EDGE('',*,*,#842,.T.);
#1133=ORIENTED_EDGE('',*,*,#855,.T.);
#1134=ORIENTED_EDGE('',*,*,#856,.T.);
#1135=ORIENTED_EDGE('',*,*,#857,.F.);
#1136=ORIENTED_EDGE('',*,*,#858,.F.);
#1137=ORIENTED_EDGE('',*,*,#773,.T.);
#1138=ORIENTED_EDGE('',*,*,#770,.T.);
#1139=ORIENTED_EDGE('',*,*,#767,.T.);
#1140=ORIENTED_EDGE('',*,*,#776,.T.);
#1141=ORIENTED_EDGE('',*,*,#785,.T.);
#1142=ORIENTED_EDGE('',*,*,#782,.T.);
#1143=ORIENTED_EDGE('',*,*,#779,.T.);
#1144=ORIENTED_EDGE('',*,*,#788,.T.);
#1145=ORIENTED_EDGE('',*,*,#797,.T.);
#1146=ORIENTED_EDGE('',*,*,#794,.T.);
#1147=ORIENTED_EDGE('',*,*,#791,.T.);
#1148=ORIENTED_EDGE('',*,*,#800,.T.);
#1149=ORIENTED_EDGE('',*,*,#859,.T.);
#1150=ORIENTED_EDGE('',*,*,#858,.T.);
#1151=ORIENTED_EDGE('',*,*,#860,.F.);
#1152=ORIENTED_EDGE('',*,*,#861,.F.);
#1153=ORIENTED_EDGE('',*,*,#737,.T.);
#1154=ORIENTED_EDGE('',*,*,#734,.T.);
#1155=ORIENTED_EDGE('',*,*,#731,.T.);
#1156=ORIENTED_EDGE('',*,*,#740,.T.);
#1157=ORIENTED_EDGE('',*,*,#749,.T.);
#1158=ORIENTED_EDGE('',*,*,#746,.T.);
#1159=ORIENTED_EDGE('',*,*,#743,.T.);
#1160=ORIENTED_EDGE('',*,*,#752,.T.);
#1161=ORIENTED_EDGE('',*,*,#761,.T.);
#1162=ORIENTED_EDGE('',*,*,#758,.T.);
#1163=ORIENTED_EDGE('',*,*,#755,.T.);
#1164=ORIENTED_EDGE('',*,*,#764,.T.);
#1165=ORIENTED_EDGE('',*,*,#862,.T.);
#1166=ORIENTED_EDGE('',*,*,#861,.T.);
#1167=ORIENTED_EDGE('',*,*,#863,.F.);
#1168=ORIENTED_EDGE('',*,*,#864,.F.);
#1169=ORIENTED_EDGE('',*,*,#801,.T.);
#1170=ORIENTED_EDGE('',*,*,#812,.T.);
#1171=ORIENTED_EDGE('',*,*,#809,.T.);
#1172=ORIENTED_EDGE('',*,*,#806,.T.);
#1173=ORIENTED_EDGE('',*,*,#815,.T.);
#1174=ORIENTED_EDGE('',*,*,#816,.T.);
#1175=ORIENTED_EDGE('',*,*,#865,.T.);
#1176=ORIENTED_EDGE('',*,*,#864,.T.);
#1177=ORIENTED_EDGE('',*,*,#866,.F.);
#1178=ORIENTED_EDGE('',*,*,#856,.F.);
#1179=ORIENTED_EDGE('',*,*,#866,.T.);
#1180=ORIENTED_EDGE('',*,*,#863,.T.);
#1181=ORIENTED_EDGE('',*,*,#860,.T.);
#1182=ORIENTED_EDGE('',*,*,#857,.T.);
#1183=ORIENTED_EDGE('',*,*,#843,.T.);
#1184=ORIENTED_EDGE('',*,*,#853,.T.);
#1185=ORIENTED_EDGE('',*,*,#850,.T.);
#1186=ORIENTED_EDGE('',*,*,#847,.T.);
#1187=ORIENTED_EDGE('',*,*,#865,.F.);
#1188=ORIENTED_EDGE('',*,*,#855,.F.);
#1189=ORIENTED_EDGE('',*,*,#859,.F.);
#1190=ORIENTED_EDGE('',*,*,#862,.F.);
#1191=ORIENTED_EDGE('',*,*,#867,.F.);
#1192=ORIENTED_EDGE('',*,*,#868,.T.);
#1193=ORIENTED_EDGE('',*,*,#869,.T.);
#1194=ORIENTED_EDGE('',*,*,#868,.F.);
#1195=ORIENTED_EDGE('',*,*,#870,.F.);
#1196=ORIENTED_EDGE('',*,*,#871,.T.);
#1197=ORIENTED_EDGE('',*,*,#872,.T.);
#1198=ORIENTED_EDGE('',*,*,#871,.F.);
#1199=ORIENTED_EDGE('',*,*,#873,.F.);
#1200=ORIENTED_EDGE('',*,*,#874,.T.);
#1201=ORIENTED_EDGE('',*,*,#875,.T.);
#1202=ORIENTED_EDGE('',*,*,#874,.F.);
#1203=ORIENTED_EDGE('',*,*,#876,.F.);
#1204=ORIENTED_EDGE('',*,*,#877,.T.);
#1205=ORIENTED_EDGE('',*,*,#878,.T.);
#1206=ORIENTED_EDGE('',*,*,#877,.F.);
#1207=ORIENTED_EDGE('',*,*,#879,.T.);
#1208=ORIENTED_EDGE('',*,*,#880,.T.);
#1209=ORIENTED_EDGE('',*,*,#881,.F.);
#1210=ORIENTED_EDGE('',*,*,#882,.F.);
#1211=ORIENTED_EDGE('',*,*,#883,.T.);
#1212=ORIENTED_EDGE('',*,*,#882,.T.);
#1213=ORIENTED_EDGE('',*,*,#884,.F.);
#1214=ORIENTED_EDGE('',*,*,#885,.F.);
#1215=ORIENTED_EDGE('',*,*,#886,.T.);
#1216=ORIENTED_EDGE('',*,*,#885,.T.);
#1217=ORIENTED_EDGE('',*,*,#887,.F.);
#1218=ORIENTED_EDGE('',*,*,#888,.F.);
#1219=ORIENTED_EDGE('',*,*,#889,.T.);
#1220=ORIENTED_EDGE('',*,*,#888,.T.);
#1221=ORIENTED_EDGE('',*,*,#890,.F.);
#1222=ORIENTED_EDGE('',*,*,#880,.F.);
#1223=ORIENTED_EDGE('',*,*,#890,.T.);
#1224=ORIENTED_EDGE('',*,*,#887,.T.);
#1225=ORIENTED_EDGE('',*,*,#884,.T.);
#1226=ORIENTED_EDGE('',*,*,#881,.T.);
#1227=ORIENTED_EDGE('',*,*,#876,.T.);
#1228=ORIENTED_EDGE('',*,*,#873,.T.);
#1229=ORIENTED_EDGE('',*,*,#870,.T.);
#1230=ORIENTED_EDGE('',*,*,#867,.T.);
#1231=ORIENTED_EDGE('',*,*,#889,.F.);
#1232=ORIENTED_EDGE('',*,*,#879,.F.);
#1233=ORIENTED_EDGE('',*,*,#883,.F.);
#1234=ORIENTED_EDGE('',*,*,#886,.F.);
#1235=ORIENTED_EDGE('',*,*,#878,.F.);
#1236=ORIENTED_EDGE('',*,*,#875,.F.);
#1237=ORIENTED_EDGE('',*,*,#872,.F.);
#1238=ORIENTED_EDGE('',*,*,#869,.F.);
#1239=ORIENTED_EDGE('',*,*,#891,.T.);
#1240=ORIENTED_EDGE('',*,*,#892,.T.);
#1241=ORIENTED_EDGE('',*,*,#893,.F.);
#1242=ORIENTED_EDGE('',*,*,#894,.F.);
#1243=ORIENTED_EDGE('',*,*,#895,.T.);
#1244=ORIENTED_EDGE('',*,*,#894,.T.);
#1245=ORIENTED_EDGE('',*,*,#896,.F.);
#1246=ORIENTED_EDGE('',*,*,#897,.F.);
#1247=ORIENTED_EDGE('',*,*,#898,.T.);
#1248=ORIENTED_EDGE('',*,*,#897,.T.);
#1249=ORIENTED_EDGE('',*,*,#899,.F.);
#1250=ORIENTED_EDGE('',*,*,#900,.F.);
#1251=ORIENTED_EDGE('',*,*,#901,.T.);
#1252=ORIENTED_EDGE('',*,*,#900,.T.);
#1253=ORIENTED_EDGE('',*,*,#902,.F.);
#1254=ORIENTED_EDGE('',*,*,#892,.F.);
#1255=ORIENTED_EDGE('',*,*,#902,.T.);
#1256=ORIENTED_EDGE('',*,*,#899,.T.);
#1257=ORIENTED_EDGE('',*,*,#896,.T.);
#1258=ORIENTED_EDGE('',*,*,#893,.T.);
#1259=ORIENTED_EDGE('',*,*,#901,.F.);
#1260=ORIENTED_EDGE('',*,*,#891,.F.);
#1261=ORIENTED_EDGE('',*,*,#895,.F.);
#1262=ORIENTED_EDGE('',*,*,#898,.F.);
#1263=ORIENTED_EDGE('',*,*,#903,.T.);
#1264=ORIENTED_EDGE('',*,*,#904,.T.);
#1265=ORIENTED_EDGE('',*,*,#905,.T.);
#1266=ORIENTED_EDGE('',*,*,#906,.T.);
#1267=ORIENTED_EDGE('',*,*,#907,.F.);
#1268=ORIENTED_EDGE('',*,*,#908,.T.);
#1269=ORIENTED_EDGE('',*,*,#903,.F.);
#1270=ORIENTED_EDGE('',*,*,#909,.F.);
#1271=ORIENTED_EDGE('',*,*,#910,.F.);
#1272=ORIENTED_EDGE('',*,*,#909,.T.);
#1273=ORIENTED_EDGE('',*,*,#906,.F.);
#1274=ORIENTED_EDGE('',*,*,#911,.F.);
#1275=ORIENTED_EDGE('',*,*,#912,.F.);
#1276=ORIENTED_EDGE('',*,*,#911,.T.);
#1277=ORIENTED_EDGE('',*,*,#905,.F.);
#1278=ORIENTED_EDGE('',*,*,#913,.F.);
#1279=ORIENTED_EDGE('',*,*,#914,.F.);
#1280=ORIENTED_EDGE('',*,*,#913,.T.);
#1281=ORIENTED_EDGE('',*,*,#904,.F.);
#1282=ORIENTED_EDGE('',*,*,#908,.F.);
#1283=ORIENTED_EDGE('',*,*,#914,.T.);
#1284=ORIENTED_EDGE('',*,*,#907,.T.);
#1285=ORIENTED_EDGE('',*,*,#910,.T.);
#1286=ORIENTED_EDGE('',*,*,#912,.T.);
#1287=PLANE('',#1433);
#1288=PLANE('',#1434);
#1289=PLANE('',#1435);
#1290=PLANE('',#1436);
#1291=PLANE('',#1437);
#1292=PLANE('',#1438);
#1293=PLANE('',#1439);
#1294=PLANE('',#1440);
#1295=PLANE('',#1441);
#1296=PLANE('',#1442);
#1297=PLANE('',#1443);
#1298=PLANE('',#1444);
#1299=PLANE('',#1445);
#1300=PLANE('',#1446);
#1301=PLANE('',#1447);
#1302=PLANE('',#1448);
#1303=PLANE('',#1449);
#1304=PLANE('',#1450);
#1305=PLANE('',#1451);
#1306=PLANE('',#1452);
#1307=PLANE('',#1453);
#1308=PLANE('',#1454);
#1309=PLANE('',#1455);
#1310=PLANE('',#1456);
#1311=PLANE('',#1460);
#1312=PLANE('',#1461);
#1313=PLANE('',#1462);
#1314=PLANE('',#1463);
#1315=PLANE('',#1470);
#1316=PLANE('',#1474);
#1317=PLANE('',#1478);
#1318=PLANE('',#1482);
#1319=PLANE('',#1486);
#1320=PLANE('',#1490);
#1321=PLANE('',#1494);
#1322=PLANE('',#1498);
#1323=PLANE('',#1499);
#1324=PLANE('',#1500);
#1325=PLANE('',#1501);
#1326=PLANE('',#1502);
#1327=PLANE('',#1503);
#1328=PLANE('',#1504);
#1329=PLANE('',#1505);
#1330=PLANE('',#1506);
#1331=PLANE('',#1507);
#1332=PLANE('',#1508);
#1333=PLANE('',#1509);
#1334=PLANE('',#1522);
#1335=PLANE('',#1523);
#1336=PLANE('',#1524);
#1337=PLANE('',#1525);
#1338=PLANE('',#1526);
#1339=PLANE('',#1527);
#1340=PLANE('',#1528);
#1341=PLANE('',#1529);
#1342=PLANE('',#1530);
#1343=PLANE('',#1531);
#1344=PLANE('',#1532);
#1345=PLANE('',#1533);
#1346=PLANE('',#1534);
#1347=PLANE('',#1535);
#1348=PLANE('',#1536);
#1349=PLANE('',#1537);
#1350=PLANE('',#1538);
#1351=ADVANCED_FACE('',(#97),#1287,.F.);
#1352=ADVANCED_FACE('',(#98),#1288,.F.);
#1353=ADVANCED_FACE('',(#99),#1289,.F.);
#1354=ADVANCED_FACE('',(#100),#1290,.F.);
#1355=ADVANCED_FACE('',(#101),#1291,.F.);
#1356=ADVANCED_FACE('',(#102),#1292,.F.);
#1357=ADVANCED_FACE('',(#103),#1293,.F.);
#1358=ADVANCED_FACE('',(#104),#1294,.F.);
#1359=ADVANCED_FACE('',(#105),#1295,.F.);
#1360=ADVANCED_FACE('',(#106),#1296,.F.);
#1361=ADVANCED_FACE('',(#107),#1297,.F.);
#1362=ADVANCED_FACE('',(#108),#1298,.F.);
#1363=ADVANCED_FACE('',(#109),#1299,.F.);
#1364=ADVANCED_FACE('',(#110),#1300,.F.);
#1365=ADVANCED_FACE('',(#111),#1301,.F.);
#1366=ADVANCED_FACE('',(#112),#1302,.F.);
#1367=ADVANCED_FACE('',(#113),#1303,.F.);
#1368=ADVANCED_FACE('',(#114),#1304,.F.);
#1369=ADVANCED_FACE('',(#115),#1305,.F.);
#1370=ADVANCED_FACE('',(#116),#1306,.F.);
#1371=ADVANCED_FACE('',(#117),#1307,.F.);
#1372=ADVANCED_FACE('',(#118),#1308,.F.);
#1373=ADVANCED_FACE('',(#119),#1309,.F.);
#1374=ADVANCED_FACE('',(#120),#1310,.F.);
#1375=ADVANCED_FACE('',(#121),#83,.F.);
#1376=ADVANCED_FACE('',(#122),#1311,.F.);
#1377=ADVANCED_FACE('',(#123),#1312,.F.);
#1378=ADVANCED_FACE('',(#124),#1313,.F.);
#1379=ADVANCED_FACE('',(#125),#1314,.F.);
#1380=ADVANCED_FACE('',(#126),#84,.F.);
#1381=ADVANCED_FACE('',(#127),#85,.F.);
#1382=ADVANCED_FACE('',(#128),#1315,.T.);
#1383=ADVANCED_FACE('',(#129),#86,.F.);
#1384=ADVANCED_FACE('',(#130),#1316,.T.);
#1385=ADVANCED_FACE('',(#131),#87,.F.);
#1386=ADVANCED_FACE('',(#132),#1317,.T.);
#1387=ADVANCED_FACE('',(#133),#88,.F.);
#1388=ADVANCED_FACE('',(#134),#1318,.T.);
#1389=ADVANCED_FACE('',(#135),#89,.T.);
#1390=ADVANCED_FACE('',(#136,#19),#1319,.T.);
#1391=ADVANCED_FACE('',(#137),#90,.T.);
#1392=ADVANCED_FACE('',(#138,#20),#1320,.T.);
#1393=ADVANCED_FACE('',(#139),#91,.T.);
#1394=ADVANCED_FACE('',(#140,#21),#1321,.T.);
#1395=ADVANCED_FACE('',(#141),#92,.T.);
#1396=ADVANCED_FACE('',(#142,#22),#1322,.T.);
#1397=ADVANCED_FACE('',(#143),#1323,.F.);
#1398=ADVANCED_FACE('',(#144,#23,#24,#25),#1324,.F.);
#1399=ADVANCED_FACE('',(#145,#26,#27,#28),#1325,.F.);
#1400=ADVANCED_FACE('',(#146,#29,#30,#31),#1326,.F.);
#1401=ADVANCED_FACE('',(#147,#32,#33,#34,#35),#1327,.F.);
#1402=ADVANCED_FACE('',(#148,#36,#37,#38),#1328,.T.);
#1403=ADVANCED_FACE('',(#149,#39,#40,#41),#1329,.T.);
#1404=ADVANCED_FACE('',(#150,#42,#43,#44),#1330,.T.);
#1405=ADVANCED_FACE('',(#151),#1331,.T.);
#1406=ADVANCED_FACE('',(#152,#45),#1332,.T.);
#1407=ADVANCED_FACE('',(#153),#1333,.F.);
#1408=ADVANCED_FACE('',(#154),#93,.F.);
#1409=ADVANCED_FACE('',(#155),#94,.F.);
#1410=ADVANCED_FACE('',(#156),#95,.F.);
#1411=ADVANCED_FACE('',(#157),#96,.F.);
#1412=ADVANCED_FACE('',(#158),#1334,.T.);
#1413=ADVANCED_FACE('',(#159),#1335,.T.);
#1414=ADVANCED_FACE('',(#160),#1336,.T.);
#1415=ADVANCED_FACE('',(#161),#1337,.T.);
#1416=ADVANCED_FACE('',(#162,#46,#47,#48,#49),#1338,.T.);
#1417=ADVANCED_FACE('',(#163,#50,#51,#52,#53),#1339,.F.);
#1418=ADVANCED_FACE('',(#164),#1340,.T.);
#1419=ADVANCED_FACE('',(#165),#1341,.T.);
#1420=ADVANCED_FACE('',(#166),#1342,.T.);
#1421=ADVANCED_FACE('',(#167),#1343,.T.);
#1422=ADVANCED_FACE('',(#168),#1344,.T.);
#1423=ADVANCED_FACE('',(#169,#54),#1345,.F.);
#1424=ADVANCED_FACE('',(#170),#1346,.T.);
#1425=ADVANCED_FACE('',(#171),#1347,.T.);
#1426=ADVANCED_FACE('',(#172),#1348,.T.);
#1427=ADVANCED_FACE('',(#173),#1349,.T.);
#1428=ADVANCED_FACE('',(#174),#1350,.F.);
#1429=CLOSED_SHELL('',(#1351,#1352,#1353,#1354,#1355,#1356,#1357,#1358,
#1359,#1360,#1361,#1362,#1363,#1364,#1365,#1366,#1367,#1368,#1369,#1370,
#1371,#1372,#1373,#1374,#1375,#1376,#1377,#1378,#1379,#1380,#1381,#1382,
#1383,#1384,#1385,#1386,#1387,#1388,#1389,#1390,#1391,#1392,#1393,#1394,
#1395,#1396,#1397,#1398,#1399,#1400,#1401,#1402,#1403,#1404,#1405,#1406,
#1407));
#1430=CLOSED_SHELL('',(#1408,#1409,#1410,#1411,#1412,#1413,#1414,#1415,
#1416,#1417));
#1431=CLOSED_SHELL('',(#1418,#1419,#1420,#1421,#1422,#1423,#1424,#1425,
#1426,#1427,#1428));
#1432=AXIS2_PLACEMENT_3D('',#1911,#1539,#1540);
#1433=AXIS2_PLACEMENT_3D('',#1912,#1541,#1542);
#1434=AXIS2_PLACEMENT_3D('',#1921,#1547,#1548);
#1435=AXIS2_PLACEMENT_3D('',#1927,#1552,#1553);
#1436=AXIS2_PLACEMENT_3D('',#1933,#1557,#1558);
#1437=AXIS2_PLACEMENT_3D('',#1936,#1561,#1562);
#1438=AXIS2_PLACEMENT_3D('',#1945,#1567,#1568);
#1439=AXIS2_PLACEMENT_3D('',#1951,#1572,#1573);
#1440=AXIS2_PLACEMENT_3D('',#1957,#1577,#1578);
#1441=AXIS2_PLACEMENT_3D('',#1960,#1581,#1582);
#1442=AXIS2_PLACEMENT_3D('',#1969,#1587,#1588);
#1443=AXIS2_PLACEMENT_3D('',#1975,#1592,#1593);
#1444=AXIS2_PLACEMENT_3D('',#1981,#1597,#1598);
#1445=AXIS2_PLACEMENT_3D('',#1984,#1601,#1602);
#1446=AXIS2_PLACEMENT_3D('',#1993,#1607,#1608);
#1447=AXIS2_PLACEMENT_3D('',#1999,#1612,#1613);
#1448=AXIS2_PLACEMENT_3D('',#2005,#1617,#1618);
#1449=AXIS2_PLACEMENT_3D('',#2008,#1621,#1622);
#1450=AXIS2_PLACEMENT_3D('',#2017,#1627,#1628);
#1451=AXIS2_PLACEMENT_3D('',#2023,#1632,#1633);
#1452=AXIS2_PLACEMENT_3D('',#2029,#1637,#1638);
#1453=AXIS2_PLACEMENT_3D('',#2032,#1641,#1642);
#1454=AXIS2_PLACEMENT_3D('',#2041,#1647,#1648);
#1455=AXIS2_PLACEMENT_3D('',#2047,#1652,#1653);
#1456=AXIS2_PLACEMENT_3D('',#2053,#1657,#1658);
#1457=AXIS2_PLACEMENT_3D('',#2056,#1661,#1662);
#1458=AXIS2_PLACEMENT_3D('',#2058,#1663,#1664);
#1459=AXIS2_PLACEMENT_3D('',#2061,#1666,#1667);
#1460=AXIS2_PLACEMENT_3D('',#2062,#1668,#1669);
#1461=AXIS2_PLACEMENT_3D('',#2071,#1674,#1675);
#1462=AXIS2_PLACEMENT_3D('',#2077,#1679,#1680);
#1463=AXIS2_PLACEMENT_3D('',#2083,#1684,#1685);
#1464=AXIS2_PLACEMENT_3D('',#2086,#1688,#1689);
#1465=AXIS2_PLACEMENT_3D('',#2088,#1690,#1691);
#1466=AXIS2_PLACEMENT_3D('',#2091,#1693,#1694);
#1467=AXIS2_PLACEMENT_3D('',#2092,#1695,#1696);
#1468=AXIS2_PLACEMENT_3D('',#2094,#1697,#1698);
#1469=AXIS2_PLACEMENT_3D('',#2097,#1700,#1701);
#1470=AXIS2_PLACEMENT_3D('',#2098,#1702,#1703);
#1471=AXIS2_PLACEMENT_3D('',#2099,#1704,#1705);
#1472=AXIS2_PLACEMENT_3D('',#2101,#1706,#1707);
#1473=AXIS2_PLACEMENT_3D('',#2104,#1709,#1710);
#1474=AXIS2_PLACEMENT_3D('',#2105,#1711,#1712);
#1475=AXIS2_PLACEMENT_3D('',#2106,#1713,#1714);
#1476=AXIS2_PLACEMENT_3D('',#2108,#1715,#1716);
#1477=AXIS2_PLACEMENT_3D('',#2111,#1718,#1719);
#1478=AXIS2_PLACEMENT_3D('',#2112,#1720,#1721);
#1479=AXIS2_PLACEMENT_3D('',#2113,#1722,#1723);
#1480=AXIS2_PLACEMENT_3D('',#2115,#1724,#1725);
#1481=AXIS2_PLACEMENT_3D('',#2118,#1727,#1728);
#1482=AXIS2_PLACEMENT_3D('',#2119,#1729,#1730);
#1483=AXIS2_PLACEMENT_3D('',#2120,#1731,#1732);
#1484=AXIS2_PLACEMENT_3D('',#2122,#1733,#1734);
#1485=AXIS2_PLACEMENT_3D('',#2125,#1736,#1737);
#1486=AXIS2_PLACEMENT_3D('',#2126,#1738,#1739);
#1487=AXIS2_PLACEMENT_3D('',#2127,#1740,#1741);
#1488=AXIS2_PLACEMENT_3D('',#2129,#1742,#1743);
#1489=AXIS2_PLACEMENT_3D('',#2132,#1745,#1746);
#1490=AXIS2_PLACEMENT_3D('',#2133,#1747,#1748);
#1491=AXIS2_PLACEMENT_3D('',#2134,#1749,#1750);
#1492=AXIS2_PLACEMENT_3D('',#2136,#1751,#1752);
#1493=AXIS2_PLACEMENT_3D('',#2139,#1754,#1755);
#1494=AXIS2_PLACEMENT_3D('',#2140,#1756,#1757);
#1495=AXIS2_PLACEMENT_3D('',#2141,#1758,#1759);
#1496=AXIS2_PLACEMENT_3D('',#2143,#1760,#1761);
#1497=AXIS2_PLACEMENT_3D('',#2146,#1763,#1764);
#1498=AXIS2_PLACEMENT_3D('',#2147,#1765,#1766);
#1499=AXIS2_PLACEMENT_3D('',#2148,#1767,#1768);
#1500=AXIS2_PLACEMENT_3D('',#2157,#1773,#1774);
#1501=AXIS2_PLACEMENT_3D('',#2163,#1778,#1779);
#1502=AXIS2_PLACEMENT_3D('',#2169,#1783,#1784);
#1503=AXIS2_PLACEMENT_3D('',#2172,#1787,#1788);
#1504=AXIS2_PLACEMENT_3D('',#2173,#1789,#1790);
#1505=AXIS2_PLACEMENT_3D('',#2182,#1795,#1796);
#1506=AXIS2_PLACEMENT_3D('',#2188,#1800,#1801);
#1507=AXIS2_PLACEMENT_3D('',#2194,#1805,#1806);
#1508=AXIS2_PLACEMENT_3D('',#2197,#1809,#1810);
#1509=AXIS2_PLACEMENT_3D('',#2198,#1811,#1812);
#1510=AXIS2_PLACEMENT_3D('',#2199,#1813,#1814);
#1511=AXIS2_PLACEMENT_3D('',#2201,#1815,#1816);
#1512=AXIS2_PLACEMENT_3D('',#2204,#1818,#1819);
#1513=AXIS2_PLACEMENT_3D('',#2205,#1820,#1821);
#1514=AXIS2_PLACEMENT_3D('',#2207,#1822,#1823);
#1515=AXIS2_PLACEMENT_3D('',#2210,#1825,#1826);
#1516=AXIS2_PLACEMENT_3D('',#2211,#1827,#1828);
#1517=AXIS2_PLACEMENT_3D('',#2213,#1829,#1830);
#1518=AXIS2_PLACEMENT_3D('',#2216,#1832,#1833);
#1519=AXIS2_PLACEMENT_3D('',#2217,#1834,#1835);
#1520=AXIS2_PLACEMENT_3D('',#2219,#1836,#1837);
#1521=AXIS2_PLACEMENT_3D('',#2222,#1839,#1840);
#1522=AXIS2_PLACEMENT_3D('',#2223,#1841,#1842);
#1523=AXIS2_PLACEMENT_3D('',#2232,#1847,#1848);
#1524=AXIS2_PLACEMENT_3D('',#2238,#1852,#1853);
#1525=AXIS2_PLACEMENT_3D('',#2244,#1857,#1858);
#1526=AXIS2_PLACEMENT_3D('',#2247,#1861,#1862);
#1527=AXIS2_PLACEMENT_3D('',#2248,#1863,#1864);
#1528=AXIS2_PLACEMENT_3D('',#2249,#1865,#1866);
#1529=AXIS2_PLACEMENT_3D('',#2258,#1871,#1872);
#1530=AXIS2_PLACEMENT_3D('',#2264,#1876,#1877);
#1531=AXIS2_PLACEMENT_3D('',#2270,#1881,#1882);
#1532=AXIS2_PLACEMENT_3D('',#2273,#1885,#1886);
#1533=AXIS2_PLACEMENT_3D('',#2274,#1887,#1888);
#1534=AXIS2_PLACEMENT_3D('',#2283,#1893,#1894);
#1535=AXIS2_PLACEMENT_3D('',#2289,#1898,#1899);
#1536=AXIS2_PLACEMENT_3D('',#2293,#1902,#1903);
#1537=AXIS2_PLACEMENT_3D('',#2297,#1906,#1907);
#1538=AXIS2_PLACEMENT_3D('',#2299,#1909,#1910);
#1539=DIRECTION('axis',(0.,0.,1.));
#1540=DIRECTION('refdir',(1.,0.,0.));
#1541=DIRECTION('center_axis',(-1.,0.,0.));
#1542=DIRECTION('ref_axis',(0.,1.,0.));
#1543=DIRECTION('',(0.,-1.,0.));
#1544=DIRECTION('',(0.,0.,-1.));
#1545=DIRECTION('',(0.,1.,0.));
#1546=DIRECTION('',(0.,0.,-1.));
#1547=DIRECTION('center_axis',(0.,-1.,0.));
#1548=DIRECTION('ref_axis',(-1.,0.,0.));
#1549=DIRECTION('',(1.,0.,0.));
#1550=DIRECTION('',(-1.,0.,0.));
#1551=DIRECTION('',(0.,0.,-1.));
#1552=DIRECTION('center_axis',(1.,0.,0.));
#1553=DIRECTION('ref_axis',(0.,-1.,0.));
#1554=DIRECTION('',(0.,1.,0.));
#1555=DIRECTION('',(0.,-1.,0.));
#1556=DIRECTION('',(0.,0.,-1.));
#1557=DIRECTION('center_axis',(0.,1.,0.));
#1558=DIRECTION('ref_axis',(1.,0.,0.));
#1559=DIRECTION('',(-1.,0.,0.));
#1560=DIRECTION('',(1.,0.,0.));
#1561=DIRECTION('center_axis',(-1.,0.,0.));
#1562=DIRECTION('ref_axis',(0.,1.,0.));
#1563=DIRECTION('',(0.,-1.,0.));
#1564=DIRECTION('',(0.,0.,-1.));
#1565=DIRECTION('',(0.,1.,0.));
#1566=DIRECTION('',(0.,0.,-1.));
#1567=DIRECTION('center_axis',(0.,-1.,0.));
#1568=DIRECTION('ref_axis',(-1.,0.,0.));
#1569=DIRECTION('',(1.,0.,0.));
#1570=DIRECTION('',(-1.,0.,0.));
#1571=DIRECTION('',(0.,0.,-1.));
#1572=DIRECTION('center_axis',(1.,0.,0.));
#1573=DIRECTION('ref_axis',(0.,-1.,0.));
#1574=DIRECTION('',(0.,1.,0.));
#1575=DIRECTION('',(0.,-1.,0.));
#1576=DIRECTION('',(0.,0.,-1.));
#1577=DIRECTION('center_axis',(0.,1.,0.));
#1578=DIRECTION('ref_axis',(1.,0.,0.));
#1579=DIRECTION('',(-1.,0.,0.));
#1580=DIRECTION('',(1.,0.,0.));
#1581=DIRECTION('center_axis',(-1.,0.,0.));
#1582=DIRECTION('ref_axis',(0.,1.,0.));
#1583=DIRECTION('',(0.,-1.,0.));
#1584=DIRECTION('',(0.,0.,-1.));
#1585=DIRECTION('',(0.,1.,0.));
#1586=DIRECTION('',(0.,0.,-1.));
#1587=DIRECTION('center_axis',(0.,-1.,0.));
#1588=DIRECTION('ref_axis',(-1.,0.,0.));
#1589=DIRECTION('',(1.,0.,0.));
#1590=DIRECTION('',(-1.,0.,0.));
#1591=DIRECTION('',(0.,0.,-1.));
#1592=DIRECTION('center_axis',(1.,0.,0.));
#1593=DIRECTION('ref_axis',(0.,-1.,0.));
#1594=DIRECTION('',(0.,1.,0.));
#1595=DIRECTION('',(0.,-1.,0.));
#1596=DIRECTION('',(0.,0.,-1.));
#1597=DIRECTION('center_axis',(0.,1.,0.));
#1598=DIRECTION('ref_axis',(1.,0.,0.));
#1599=DIRECTION('',(-1.,0.,0.));
#1600=DIRECTION('',(1.,0.,0.));
#1601=DIRECTION('center_axis',(0.,0.,1.));
#1602=DIRECTION('ref_axis',(0.,1.,0.));
#1603=DIRECTION('',(0.,-1.,0.));
#1604=DIRECTION('',(-1.,0.,0.));
#1605=DIRECTION('',(0.,1.,0.));
#1606=DIRECTION('',(-1.,0.,0.));
#1607=DIRECTION('center_axis',(0.,-1.,0.));
#1608=DIRECTION('ref_axis',(0.,0.,1.));
#1609=DIRECTION('',(0.,0.,-1.));
#1610=DIRECTION('',(0.,0.,1.));
#1611=DIRECTION('',(-1.,0.,0.));
#1612=DIRECTION('center_axis',(0.,0.,-1.));
#1613=DIRECTION('ref_axis',(0.,-1.,0.));
#1614=DIRECTION('',(0.,1.,0.));
#1615=DIRECTION('',(0.,-1.,0.));
#1616=DIRECTION('',(-1.,0.,0.));
#1617=DIRECTION('center_axis',(0.,1.,0.));
#1618=DIRECTION('ref_axis',(0.,0.,-1.));
#1619=DIRECTION('',(0.,0.,1.));
#1620=DIRECTION('',(0.,0.,-1.));
#1621=DIRECTION('center_axis',(0.,0.,1.));
#1622=DIRECTION('ref_axis',(0.,1.,0.));
#1623=DIRECTION('',(0.,-1.,0.));
#1624=DIRECTION('',(-1.,0.,0.));
#1625=DIRECTION('',(0.,1.,0.));
#1626=DIRECTION('',(-1.,0.,0.));
#1627=DIRECTION('center_axis',(0.,-1.,0.));
#1628=DIRECTION('ref_axis',(0.,0.,1.));
#1629=DIRECTION('',(0.,0.,-1.));
#1630=DIRECTION('',(0.,0.,1.));
#1631=DIRECTION('',(-1.,0.,0.));
#1632=DIRECTION('center_axis',(0.,0.,-1.));
#1633=DIRECTION('ref_axis',(0.,-1.,0.));
#1634=DIRECTION('',(0.,1.,0.));
#1635=DIRECTION('',(0.,-1.,0.));
#1636=DIRECTION('',(-1.,0.,0.));
#1637=DIRECTION('center_axis',(0.,1.,0.));
#1638=DIRECTION('ref_axis',(0.,0.,-1.));
#1639=DIRECTION('',(0.,0.,1.));
#1640=DIRECTION('',(0.,0.,-1.));
#1641=DIRECTION('center_axis',(0.,1.,0.));
#1642=DIRECTION('ref_axis',(0.,0.,-1.));
#1643=DIRECTION('',(0.,0.,1.));
#1644=DIRECTION('',(-1.,0.,0.));
#1645=DIRECTION('',(0.,0.,-1.));
#1646=DIRECTION('',(-1.,0.,0.));
#1647=DIRECTION('center_axis',(0.,0.,1.));
#1648=DIRECTION('ref_axis',(0.,1.,0.));
#1649=DIRECTION('',(0.,-1.,0.));
#1650=DIRECTION('',(0.,1.,0.));
#1651=DIRECTION('',(-1.,0.,0.));
#1652=DIRECTION('center_axis',(0.,-1.,0.));
#1653=DIRECTION('ref_axis',(0.,0.,1.));
#1654=DIRECTION('',(0.,0.,-1.));
#1655=DIRECTION('',(0.,0.,1.));
#1656=DIRECTION('',(-1.,0.,0.));
#1657=DIRECTION('center_axis',(0.,0.,-1.));
#1658=DIRECTION('ref_axis',(0.,-1.,0.));
#1659=DIRECTION('',(0.,1.,0.));
#1660=DIRECTION('',(0.,-1.,0.));
#1661=DIRECTION('center_axis',(1.,0.,0.));
#1662=DIRECTION('ref_axis',(0.,0.,1.));
#1663=DIRECTION('center_axis',(1.,0.,0.));
#1664=DIRECTION('ref_axis',(0.,0.,1.));
#1665=DIRECTION('',(1.,0.,0.));
#1666=DIRECTION('center_axis',(-1.,0.,0.));
#1667=DIRECTION('ref_axis',(0.,0.,1.));
#1668=DIRECTION('center_axis',(0.,0.,-1.));
#1669=DIRECTION('ref_axis',(0.,1.,0.));
#1670=DIRECTION('',(0.,-1.,0.));
#1671=DIRECTION('',(1.,0.,0.));
#1672=DIRECTION('',(0.,1.,0.));
#1673=DIRECTION('',(1.,0.,0.));
#1674=DIRECTION('center_axis',(0.,-1.,0.));
#1675=DIRECTION('ref_axis',(0.,0.,-1.));
#1676=DIRECTION('',(0.,0.,1.));
#1677=DIRECTION('',(0.,0.,-1.));
#1678=DIRECTION('',(1.,0.,0.));
#1679=DIRECTION('center_axis',(0.,0.,1.));
#1680=DIRECTION('ref_axis',(0.,-1.,0.));
#1681=DIRECTION('',(0.,1.,0.));
#1682=DIRECTION('',(0.,-1.,0.));
#1683=DIRECTION('',(1.,0.,0.));
#1684=DIRECTION('center_axis',(0.,1.,0.));
#1685=DIRECTION('ref_axis',(0.,0.,1.));
#1686=DIRECTION('',(0.,0.,-1.));
#1687=DIRECTION('',(0.,0.,1.));
#1688=DIRECTION('center_axis',(1.,0.,0.));
#1689=DIRECTION('ref_axis',(0.,0.,1.));
#1690=DIRECTION('center_axis',(1.,0.,0.));
#1691=DIRECTION('ref_axis',(0.,0.,1.));
#1692=DIRECTION('',(1.,0.,0.));
#1693=DIRECTION('center_axis',(-1.,0.,0.));
#1694=DIRECTION('ref_axis',(0.,0.,1.));
#1695=DIRECTION('center_axis',(0.,-1.,0.));
#1696=DIRECTION('ref_axis',(-1.,0.,0.));
#1697=DIRECTION('center_axis',(0.,-1.,0.));
#1698=DIRECTION('ref_axis',(-1.,0.,0.));
#1699=DIRECTION('',(0.,-1.,0.));
#1700=DIRECTION('center_axis',(0.,-1.,0.));
#1701=DIRECTION('ref_axis',(-1.,0.,0.));
#1702=DIRECTION('center_axis',(0.,1.,0.));
#1703=DIRECTION('ref_axis',(-1.,0.,0.));
#1704=DIRECTION('center_axis',(0.,-1.,0.));
#1705=DIRECTION('ref_axis',(-1.,0.,0.));
#1706=DIRECTION('center_axis',(0.,-1.,0.));
#1707=DIRECTION('ref_axis',(-1.,0.,0.));
#1708=DIRECTION('',(0.,-1.,0.));
#1709=DIRECTION('center_axis',(0.,-1.,0.));
#1710=DIRECTION('ref_axis',(-1.,0.,0.));
#1711=DIRECTION('center_axis',(0.,1.,0.));
#1712=DIRECTION('ref_axis',(-1.,0.,0.));
#1713=DIRECTION('center_axis',(0.,-1.,0.));
#1714=DIRECTION('ref_axis',(-1.,0.,0.));
#1715=DIRECTION('center_axis',(0.,-1.,0.));
#1716=DIRECTION('ref_axis',(-1.,0.,0.));
#1717=DIRECTION('',(0.,-1.,0.));
#1718=DIRECTION('center_axis',(0.,-1.,0.));
#1719=DIRECTION('ref_axis',(-1.,0.,0.));
#1720=DIRECTION('center_axis',(0.,1.,0.));
#1721=DIRECTION('ref_axis',(-1.,0.,0.));
#1722=DIRECTION('center_axis',(0.,-1.,0.));
#1723=DIRECTION('ref_axis',(-1.,0.,0.));
#1724=DIRECTION('center_axis',(0.,-1.,0.));
#1725=DIRECTION('ref_axis',(-1.,0.,0.));
#1726=DIRECTION('',(0.,-1.,0.));
#1727=DIRECTION('center_axis',(0.,-1.,0.));
#1728=DIRECTION('ref_axis',(-1.,0.,0.));
#1729=DIRECTION('center_axis',(0.,1.,0.));
#1730=DIRECTION('ref_axis',(-1.,0.,0.));
#1731=DIRECTION('center_axis',(0.,1.,0.));
#1732=DIRECTION('ref_axis',(-1.,0.,0.));
#1733=DIRECTION('center_axis',(0.,1.,0.));
#1734=DIRECTION('ref_axis',(-1.,0.,0.));
#1735=DIRECTION('',(0.,-1.,0.));
#1736=DIRECTION('center_axis',(0.,-1.,0.));
#1737=DIRECTION('ref_axis',(-1.,0.,0.));
#1738=DIRECTION('center_axis',(0.,1.,0.));
#1739=DIRECTION('ref_axis',(-1.,0.,0.));
#1740=DIRECTION('center_axis',(0.,1.,0.));
#1741=DIRECTION('ref_axis',(-1.,0.,0.));
#1742=DIRECTION('center_axis',(0.,1.,0.));
#1743=DIRECTION('ref_axis',(-1.,0.,0.));
#1744=DIRECTION('',(0.,-1.,0.));
#1745=DIRECTION('center_axis',(0.,-1.,0.));
#1746=DIRECTION('ref_axis',(-1.,0.,0.));
#1747=DIRECTION('center_axis',(0.,1.,0.));
#1748=DIRECTION('ref_axis',(-1.,0.,0.));
#1749=DIRECTION('center_axis',(0.,1.,0.));
#1750=DIRECTION('ref_axis',(-1.,0.,0.));
#1751=DIRECTION('center_axis',(0.,1.,0.));
#1752=DIRECTION('ref_axis',(-1.,0.,0.));
#1753=DIRECTION('',(0.,-1.,0.));
#1754=DIRECTION('center_axis',(0.,-1.,0.));
#1755=DIRECTION('ref_axis',(-1.,0.,0.));
#1756=DIRECTION('center_axis',(0.,1.,0.));
#1757=DIRECTION('ref_axis',(-1.,0.,0.));
#1758=DIRECTION('center_axis',(0.,1.,0.));
#1759=DIRECTION('ref_axis',(-1.,0.,0.));
#1760=DIRECTION('center_axis',(0.,1.,0.));
#1761=DIRECTION('ref_axis',(-1.,0.,0.));
#1762=DIRECTION('',(0.,-1.,0.));
#1763=DIRECTION('center_axis',(0.,-1.,0.));
#1764=DIRECTION('ref_axis',(-1.,0.,0.));
#1765=DIRECTION('center_axis',(0.,1.,0.));
#1766=DIRECTION('ref_axis',(-1.,0.,0.));
#1767=DIRECTION('center_axis',(0.,0.,-1.));
#1768=DIRECTION('ref_axis',(1.,0.,0.));
#1769=DIRECTION('',(1.,0.,0.));
#1770=DIRECTION('',(0.,-1.,0.));
#1771=DIRECTION('',(1.,0.,0.));
#1772=DIRECTION('',(0.,-1.,0.));
#1773=DIRECTION('center_axis',(-1.,0.,0.));
#1774=DIRECTION('ref_axis',(0.,0.,-1.));
#1775=DIRECTION('',(0.,0.,-1.));
#1776=DIRECTION('',(0.,-1.,0.));
#1777=DIRECTION('',(0.,0.,-1.));
#1778=DIRECTION('center_axis',(0.,0.,1.));
#1779=DIRECTION('ref_axis',(-1.,0.,0.));
#1780=DIRECTION('',(-1.,0.,0.));
#1781=DIRECTION('',(0.,-1.,0.));
#1782=DIRECTION('',(-1.,0.,0.));
#1783=DIRECTION('center_axis',(1.,0.,0.));
#1784=DIRECTION('ref_axis',(0.,0.,1.));
#1785=DIRECTION('',(0.,0.,1.));
#1786=DIRECTION('',(0.,0.,1.));
#1787=DIRECTION('center_axis',(0.,-1.,0.));
#1788=DIRECTION('ref_axis',(0.,0.,-1.));
#1789=DIRECTION('center_axis',(1.,0.,0.));
#1790=DIRECTION('ref_axis',(0.,0.,-1.));
#1791=DIRECTION('',(0.,0.,-1.));
#1792=DIRECTION('',(0.,1.,0.));
#1793=DIRECTION('',(0.,0.,-1.));
#1794=DIRECTION('',(0.,1.,0.));
#1795=DIRECTION('center_axis',(0.,0.,1.));
#1796=DIRECTION('ref_axis',(1.,0.,0.));
#1797=DIRECTION('',(1.,0.,0.));
#1798=DIRECTION('',(1.,0.,0.));
#1799=DIRECTION('',(0.,1.,0.));
#1800=DIRECTION('center_axis',(-1.,0.,0.));
#1801=DIRECTION('ref_axis',(0.,0.,1.));
#1802=DIRECTION('',(0.,0.,1.));
#1803=DIRECTION('',(0.,0.,1.));
#1804=DIRECTION('',(0.,1.,0.));
#1805=DIRECTION('center_axis',(0.,0.,-1.));
#1806=DIRECTION('ref_axis',(-1.,0.,0.));
#1807=DIRECTION('',(-1.,0.,0.));
#1808=DIRECTION('',(-1.,0.,0.));
#1809=DIRECTION('center_axis',(0.,1.,0.));
#1810=DIRECTION('ref_axis',(0.,0.,1.));
#1811=DIRECTION('center_axis',(0.,1.,0.));
#1812=DIRECTION('ref_axis',(-1.,0.,0.));
#1813=DIRECTION('center_axis',(0.,1.,0.));
#1814=DIRECTION('ref_axis',(-1.,0.,0.));
#1815=DIRECTION('center_axis',(0.,-1.,0.));
#1816=DIRECTION('ref_axis',(-1.,0.,0.));
#1817=DIRECTION('',(0.,-1.,0.));
#1818=DIRECTION('center_axis',(0.,-1.,0.));
#1819=DIRECTION('ref_axis',(-1.,0.,0.));
#1820=DIRECTION('center_axis',(0.,1.,0.));
#1821=DIRECTION('ref_axis',(-1.,0.,0.));
#1822=DIRECTION('center_axis',(0.,-1.,0.));
#1823=DIRECTION('ref_axis',(-1.,0.,0.));
#1824=DIRECTION('',(0.,-1.,0.));
#1825=DIRECTION('center_axis',(0.,-1.,0.));
#1826=DIRECTION('ref_axis',(-1.,0.,0.));
#1827=DIRECTION('center_axis',(0.,1.,0.));
#1828=DIRECTION('ref_axis',(-1.,0.,0.));
#1829=DIRECTION('center_axis',(0.,-1.,0.));
#1830=DIRECTION('ref_axis',(-1.,0.,0.));
#1831=DIRECTION('',(0.,-1.,0.));
#1832=DIRECTION('center_axis',(0.,-1.,0.));
#1833=DIRECTION('ref_axis',(-1.,0.,0.));
#1834=DIRECTION('center_axis',(0.,1.,0.));
#1835=DIRECTION('ref_axis',(-1.,0.,0.));
#1836=DIRECTION('center_axis',(0.,-1.,0.));
#1837=DIRECTION('ref_axis',(-1.,0.,0.));
#1838=DIRECTION('',(0.,-1.,0.));
#1839=DIRECTION('center_axis',(0.,-1.,0.));
#1840=DIRECTION('ref_axis',(-1.,0.,0.));
#1841=DIRECTION('center_axis',(0.,0.,-1.));
#1842=DIRECTION('ref_axis',(-1.,0.,0.));
#1843=DIRECTION('',(-1.,0.,0.));
#1844=DIRECTION('',(0.,1.,0.));
#1845=DIRECTION('',(-1.,0.,0.));
#1846=DIRECTION('',(0.,1.,0.));
#1847=DIRECTION('center_axis',(1.,0.,0.));
#1848=DIRECTION('ref_axis',(0.,-1.05006315629571E-16,-1.));
#1849=DIRECTION('',(0.,-1.05006315629571E-16,-1.));
#1850=DIRECTION('',(0.,-1.05006315629571E-16,-1.));
#1851=DIRECTION('',(0.,1.,0.));
#1852=DIRECTION('center_axis',(0.,0.,1.));
#1853=DIRECTION('ref_axis',(1.,6.81031376127892E-17,0.));
#1854=DIRECTION('',(1.,6.81031376127892E-17,0.));
#1855=DIRECTION('',(1.,6.81031376127892E-17,0.));
#1856=DIRECTION('',(0.,1.,0.));
#1857=DIRECTION('center_axis',(-1.,0.,0.));
#1858=DIRECTION('ref_axis',(0.,0.,1.));
#1859=DIRECTION('',(0.,0.,1.));
#1860=DIRECTION('',(0.,0.,1.));
#1861=DIRECTION('center_axis',(0.,1.,0.));
#1862=DIRECTION('ref_axis',(-1.,0.,0.));
#1863=DIRECTION('center_axis',(0.,1.,0.));
#1864=DIRECTION('ref_axis',(-1.,0.,0.));
#1865=DIRECTION('center_axis',(0.,0.,1.));
#1866=DIRECTION('ref_axis',(1.,0.,0.));
#1867=DIRECTION('',(1.,0.,0.));
#1868=DIRECTION('',(0.,1.,0.));
#1869=DIRECTION('',(1.,0.,0.));
#1870=DIRECTION('',(0.,1.,0.));
#1871=DIRECTION('center_axis',(-1.,0.,0.));
#1872=DIRECTION('ref_axis',(0.,0.,1.));
#1873=DIRECTION('',(0.,0.,1.));
#1874=DIRECTION('',(0.,0.,1.));
#1875=DIRECTION('',(0.,1.,0.));
#1876=DIRECTION('center_axis',(0.,0.,-1.));
#1877=DIRECTION('ref_axis',(-1.,0.,0.));
#1878=DIRECTION('',(-1.,0.,0.));
#1879=DIRECTION('',(-1.,0.,0.));
#1880=DIRECTION('',(0.,1.,0.));
#1881=DIRECTION('center_axis',(1.,0.,0.));
#1882=DIRECTION('ref_axis',(0.,0.,-1.));
#1883=DIRECTION('',(0.,0.,-1.));
#1884=DIRECTION('',(0.,0.,-1.));
#1885=DIRECTION('center_axis',(0.,1.,0.));
#1886=DIRECTION('ref_axis',(0.,0.,1.));
#1887=DIRECTION('center_axis',(0.,1.,0.));
#1888=DIRECTION('ref_axis',(-1.,0.,0.));
#1889=DIRECTION('',(0.,0.,-1.));
#1890=DIRECTION('',(-1.,0.,0.));
#1891=DIRECTION('',(0.,0.,1.));
#1892=DIRECTION('',(1.,0.,0.));
#1893=DIRECTION('center_axis',(1.,0.,0.));
#1894=DIRECTION('ref_axis',(0.,0.,-1.));
#1895=DIRECTION('',(0.,0.,1.));
#1896=DIRECTION('',(0.,1.,0.));
#1897=DIRECTION('',(0.,1.,0.));
#1898=DIRECTION('center_axis',(0.,0.,1.));
#1899=DIRECTION('ref_axis',(1.,0.,0.));
#1900=DIRECTION('',(-1.,0.,0.));
#1901=DIRECTION('',(0.,1.,0.));
#1902=DIRECTION('center_axis',(-1.,0.,0.));
#1903=DIRECTION('ref_axis',(0.,0.,1.));
#1904=DIRECTION('',(0.,0.,-1.));
#1905=DIRECTION('',(0.,1.,0.));
#1906=DIRECTION('center_axis',(0.,0.,-1.));
#1907=DIRECTION('ref_axis',(-1.,0.,0.));
#1908=DIRECTION('',(1.,0.,0.));
#1909=DIRECTION('center_axis',(0.,1.,0.));
#1910=DIRECTION('ref_axis',(-1.,0.,0.));
#1911=CARTESIAN_POINT('',(0.,0.,0.));
#1912=CARTESIAN_POINT('Origin',(-750.,190.,550.));
#1913=CARTESIAN_POINT('',(-750.,200.,525.));
#1914=CARTESIAN_POINT('',(-750.,190.,525.));
#1915=CARTESIAN_POINT('',(-750.,222.5,525.));
#1916=CARTESIAN_POINT('',(-750.,200.,550.));
#1917=CARTESIAN_POINT('',(-750.,200.,550.));
#1918=CARTESIAN_POINT('',(-750.,190.,550.));
#1919=CARTESIAN_POINT('',(-750.,97.5,550.));
#1920=CARTESIAN_POINT('',(-750.,190.,550.));
#1921=CARTESIAN_POINT('Origin',(750.,190.,550.));
#1922=CARTESIAN_POINT('',(750.,190.,525.));
#1923=CARTESIAN_POINT('',(770.,190.,525.));
#1924=CARTESIAN_POINT('',(750.,190.,550.));
#1925=CARTESIAN_POINT('',(-25.,190.,550.));
#1926=CARTESIAN_POINT('',(750.,190.,550.));
#1927=CARTESIAN_POINT('Origin',(750.,200.,550.));
#1928=CARTESIAN_POINT('',(750.,200.,525.));
#1929=CARTESIAN_POINT('',(750.,227.5,525.));
#1930=CARTESIAN_POINT('',(750.,200.,550.));
#1931=CARTESIAN_POINT('',(750.,102.5,550.));
#1932=CARTESIAN_POINT('',(750.,200.,550.));
#1933=CARTESIAN_POINT('Origin',(-750.,200.,550.));
#1934=CARTESIAN_POINT('',(20.,200.,525.));
#1935=CARTESIAN_POINT('',(-775.,200.,550.));
#1936=CARTESIAN_POINT('Origin',(-750.,170.,550.));
#1937=CARTESIAN_POINT('',(-750.,180.,525.));
#1938=CARTESIAN_POINT('',(-750.,170.,525.));
#1939=CARTESIAN_POINT('',(-750.,212.5,525.));
#1940=CARTESIAN_POINT('',(-750.,180.,550.));
#1941=CARTESIAN_POINT('',(-750.,180.,550.));
#1942=CARTESIAN_POINT('',(-750.,170.,550.));
#1943=CARTESIAN_POINT('',(-750.,87.5,550.));
#1944=CARTESIAN_POINT('',(-750.,170.,550.));
#1945=CARTESIAN_POINT('Origin',(750.,170.,550.));
#1946=CARTESIAN_POINT('',(750.,170.,525.));
#1947=CARTESIAN_POINT('',(770.,170.,525.));
#1948=CARTESIAN_POINT('',(750.,170.,550.));
#1949=CARTESIAN_POINT('',(-25.,170.,550.));
#1950=CARTESIAN_POINT('',(750.,170.,550.));
#1951=CARTESIAN_POINT('Origin',(750.,180.,550.));
#1952=CARTESIAN_POINT('',(750.,180.,525.));
#1953=CARTESIAN_POINT('',(750.,217.5,525.));
#1954=CARTESIAN_POINT('',(750.,180.,550.));
#1955=CARTESIAN_POINT('',(750.,92.5,550.));
#1956=CARTESIAN_POINT('',(750.,180.,550.));
#1957=CARTESIAN_POINT('Origin',(-750.,180.,550.));
#1958=CARTESIAN_POINT('',(20.,180.,525.));
#1959=CARTESIAN_POINT('',(-775.,180.,550.));
#1960=CARTESIAN_POINT('Origin',(-750.,150.,550.));
#1961=CARTESIAN_POINT('',(-750.,160.,525.));
#1962=CARTESIAN_POINT('',(-750.,150.,525.));
#1963=CARTESIAN_POINT('',(-750.,202.5,525.));
#1964=CARTESIAN_POINT('',(-750.,160.,550.));
#1965=CARTESIAN_POINT('',(-750.,160.,550.));
#1966=CARTESIAN_POINT('',(-750.,150.,550.));
#1967=CARTESIAN_POINT('',(-750.,77.5,550.));
#1968=CARTESIAN_POINT('',(-750.,150.,550.));
#1969=CARTESIAN_POINT('Origin',(750.,150.,550.));
#1970=CARTESIAN_POINT('',(750.,150.,525.));
#1971=CARTESIAN_POINT('',(770.,150.,525.));
#1972=CARTESIAN_POINT('',(750.,150.,550.));
#1973=CARTESIAN_POINT('',(-25.,150.,550.));
#1974=CARTESIAN_POINT('',(750.,150.,550.));
#1975=CARTESIAN_POINT('Origin',(750.,160.,550.));
#1976=CARTESIAN_POINT('',(750.,160.,525.));
#1977=CARTESIAN_POINT('',(750.,207.5,525.));
#1978=CARTESIAN_POINT('',(750.,160.,550.));
#1979=CARTESIAN_POINT('',(750.,82.5,550.));
#1980=CARTESIAN_POINT('',(750.,160.,550.));
#1981=CARTESIAN_POINT('Origin',(-750.,160.,550.));
#1982=CARTESIAN_POINT('',(20.,160.,525.));
#1983=CARTESIAN_POINT('',(-775.,160.,550.));
#1984=CARTESIAN_POINT('Origin',(800.,190.,500.));
#1985=CARTESIAN_POINT('',(790.,200.,500.));
#1986=CARTESIAN_POINT('',(790.,190.,500.));
#1987=CARTESIAN_POINT('',(790.,222.5,500.));
#1988=CARTESIAN_POINT('',(800.,200.,500.));
#1989=CARTESIAN_POINT('',(800.,200.,500.));
#1990=CARTESIAN_POINT('',(800.,190.,500.));
#1991=CARTESIAN_POINT('',(800.,97.5,500.));
#1992=CARTESIAN_POINT('',(800.,190.,500.));
#1993=CARTESIAN_POINT('Origin',(800.,190.,-450.));
#1994=CARTESIAN_POINT('',(790.,190.,-450.));
#1995=CARTESIAN_POINT('',(790.,190.,-470.));
#1996=CARTESIAN_POINT('',(800.,190.,-450.));
#1997=CARTESIAN_POINT('',(800.,190.,50.));
#1998=CARTESIAN_POINT('',(800.,190.,-450.));
#1999=CARTESIAN_POINT('Origin',(800.,200.,-450.));
#2000=CARTESIAN_POINT('',(790.,200.,-450.));
#2001=CARTESIAN_POINT('',(790.,227.5,-450.));
#2002=CARTESIAN_POINT('',(800.,200.,-450.));
#2003=CARTESIAN_POINT('',(800.,102.5,-450.));
#2004=CARTESIAN_POINT('',(800.,200.,-450.));
#2005=CARTESIAN_POINT('Origin',(800.,200.,500.));
#2006=CARTESIAN_POINT('',(790.,200.,5.));
#2007=CARTESIAN_POINT('',(800.,200.,525.));
#2008=CARTESIAN_POINT('Origin',(800.,170.,500.));
#2009=CARTESIAN_POINT('',(790.,180.,500.));
#2010=CARTESIAN_POINT('',(790.,170.,500.));
#2011=CARTESIAN_POINT('',(790.,212.5,500.));
#2012=CARTESIAN_POINT('',(800.,180.,500.));
#2013=CARTESIAN_POINT('',(800.,180.,500.));
#2014=CARTESIAN_POINT('',(800.,170.,500.));
#2015=CARTESIAN_POINT('',(800.,87.5,500.));
#2016=CARTESIAN_POINT('',(800.,170.,500.));
#2017=CARTESIAN_POINT('Origin',(800.,170.,-450.));
#2018=CARTESIAN_POINT('',(790.,170.,-450.));
#2019=CARTESIAN_POINT('',(790.,170.,-470.));
#2020=CARTESIAN_POINT('',(800.,170.,-450.));
#2021=CARTESIAN_POINT('',(800.,170.,50.));
#2022=CARTESIAN_POINT('',(800.,170.,-450.));
#2023=CARTESIAN_POINT('Origin',(800.,180.,-450.));
#2024=CARTESIAN_POINT('',(790.,180.,-450.));
#2025=CARTESIAN_POINT('',(790.,217.5,-450.));
#2026=CARTESIAN_POINT('',(800.,180.,-450.));
#2027=CARTESIAN_POINT('',(800.,92.5,-450.));
#2028=CARTESIAN_POINT('',(800.,180.,-450.));
#2029=CARTESIAN_POINT('Origin',(800.,180.,500.));
#2030=CARTESIAN_POINT('',(790.,180.,5.));
#2031=CARTESIAN_POINT('',(800.,180.,525.));
#2032=CARTESIAN_POINT('Origin',(800.,160.,500.));
#2033=CARTESIAN_POINT('',(790.,160.,-450.));
#2034=CARTESIAN_POINT('',(790.,160.,500.));
#2035=CARTESIAN_POINT('',(790.,160.,5.));
#2036=CARTESIAN_POINT('',(800.,160.,-450.));
#2037=CARTESIAN_POINT('',(800.,160.,-450.));
#2038=CARTESIAN_POINT('',(800.,160.,500.));
#2039=CARTESIAN_POINT('',(800.,160.,525.));
#2040=CARTESIAN_POINT('',(800.,160.,500.));
#2041=CARTESIAN_POINT('Origin',(800.,150.,500.));
#2042=CARTESIAN_POINT('',(790.,150.,500.));
#2043=CARTESIAN_POINT('',(790.,202.5,500.));
#2044=CARTESIAN_POINT('',(800.,150.,500.));
#2045=CARTESIAN_POINT('',(800.,77.5,500.));
#2046=CARTESIAN_POINT('',(800.,150.,500.));
#2047=CARTESIAN_POINT('Origin',(800.,150.,-450.));
#2048=CARTESIAN_POINT('',(790.,150.,-450.));
#2049=CARTESIAN_POINT('',(790.,150.,-470.));
#2050=CARTESIAN_POINT('',(800.,150.,-450.));
#2051=CARTESIAN_POINT('',(800.,150.,50.));
#2052=CARTESIAN_POINT('',(800.,150.,-450.));
#2053=CARTESIAN_POINT('Origin',(800.,160.,-450.));
#2054=CARTESIAN_POINT('',(790.,207.5,-450.));
#2055=CARTESIAN_POINT('',(800.,82.5,-450.));
#2056=CARTESIAN_POINT('Origin',(-800.,150.,-400.));
#2057=CARTESIAN_POINT('',(-800.,150.,-422.5));
#2058=CARTESIAN_POINT('Origin',(-800.,150.,-400.));
#2059=CARTESIAN_POINT('',(-775.,150.,-422.5));
#2060=CARTESIAN_POINT('',(-800.,150.,-422.5));
#2061=CARTESIAN_POINT('Origin',(-775.,150.,-400.));
#2062=CARTESIAN_POINT('Origin',(-800.,103.,-300.));
#2063=CARTESIAN_POINT('',(-775.,130.,-300.));
#2064=CARTESIAN_POINT('',(-775.,103.,-300.));
#2065=CARTESIAN_POINT('',(-775.,179.,-300.));
#2066=CARTESIAN_POINT('',(-800.,130.,-300.));
#2067=CARTESIAN_POINT('',(-800.,130.,-300.));
#2068=CARTESIAN_POINT('',(-800.,103.,-300.));
#2069=CARTESIAN_POINT('',(-800.,54.,-300.));
#2070=CARTESIAN_POINT('',(-800.,103.,-300.));
#2071=CARTESIAN_POINT('Origin',(-800.,103.,-273.));
#2072=CARTESIAN_POINT('',(-775.,103.,-273.));
#2073=CARTESIAN_POINT('',(-775.,103.,126.));
#2074=CARTESIAN_POINT('',(-800.,103.,-273.));
#2075=CARTESIAN_POINT('',(-800.,103.,-386.5));
#2076=CARTESIAN_POINT('',(-800.,103.,-273.));
#2077=CARTESIAN_POINT('Origin',(-800.,130.,-273.));
#2078=CARTESIAN_POINT('',(-775.,130.,-273.));
#2079=CARTESIAN_POINT('',(-775.,192.5,-273.));
#2080=CARTESIAN_POINT('',(-800.,130.,-273.));
#2081=CARTESIAN_POINT('',(-800.,67.5,-273.));
#2082=CARTESIAN_POINT('',(-800.,130.,-273.));
#2083=CARTESIAN_POINT('Origin',(-800.,130.,-300.));
#2084=CARTESIAN_POINT('',(-775.,130.,112.5));
#2085=CARTESIAN_POINT('',(-800.,130.,-400.));
#2086=CARTESIAN_POINT('Origin',(-800.,80.,-400.));
#2087=CARTESIAN_POINT('',(-800.,80.,-422.5));
#2088=CARTESIAN_POINT('Origin',(-800.,80.,-400.));
#2089=CARTESIAN_POINT('',(-775.,80.,-422.5));
#2090=CARTESIAN_POINT('',(-800.,80.,-422.5));
#2091=CARTESIAN_POINT('Origin',(-775.,80.,-400.));
#2092=CARTESIAN_POINT('Origin',(-635.000009462237,65.,-370.00000551343));
#2093=CARTESIAN_POINT('',(-619.000009223819,65.,-370.00000551343));
#2094=CARTESIAN_POINT('Origin',(-635.000009462237,65.,-370.00000551343));
#2095=CARTESIAN_POINT('',(-619.000009223819,30.,-370.00000551343));
#2096=CARTESIAN_POINT('',(-619.000009223819,65.,-370.00000551343));
#2097=CARTESIAN_POINT('Origin',(-635.000009462237,30.,-370.00000551343));
#2098=CARTESIAN_POINT('Origin',(-635.000009462237,30.,-370.00000551343));
#2099=CARTESIAN_POINT('Origin',(620.,65.,-345.));
#2100=CARTESIAN_POINT('',(635.999995097521,65.,-345.));
#2101=CARTESIAN_POINT('Origin',(620.,65.,-345.));
#2102=CARTESIAN_POINT('',(635.999995097521,30.,-345.));
#2103=CARTESIAN_POINT('',(635.999995097521,65.,-345.));
#2104=CARTESIAN_POINT('Origin',(620.,30.,-345.));
#2105=CARTESIAN_POINT('Origin',(620.,30.,-345.));
#2106=CARTESIAN_POINT('Origin',(-630.,65.,400.));
#2107=CARTESIAN_POINT('',(-613.999993801114,65.,400.));
#2108=CARTESIAN_POINT('Origin',(-630.,65.,400.));
#2109=CARTESIAN_POINT('',(-613.999993801114,30.,400.));
#2110=CARTESIAN_POINT('',(-613.999993801114,65.,400.));
#2111=CARTESIAN_POINT('Origin',(-630.,30.,400.));
#2112=CARTESIAN_POINT('Origin',(-630.,30.,400.));
#2113=CARTESIAN_POINT('Origin',(625.,65.,395.));
#2114=CARTESIAN_POINT('',(641.,65.,395.));
#2115=CARTESIAN_POINT('Origin',(625.,65.,395.));
#2116=CARTESIAN_POINT('',(641.,30.,395.));
#2117=CARTESIAN_POINT('',(641.,65.,395.));
#2118=CARTESIAN_POINT('Origin',(625.,30.,395.));
#2119=CARTESIAN_POINT('Origin',(625.,30.,395.));
#2120=CARTESIAN_POINT('Origin',(620.,15.,-345.));
#2121=CARTESIAN_POINT('',(642.5,65.,-345.));
#2122=CARTESIAN_POINT('Origin',(620.,65.,-345.));
#2123=CARTESIAN_POINT('',(642.5,15.,-345.));
#2124=CARTESIAN_POINT('',(642.5,15.,-345.));
#2125=CARTESIAN_POINT('Origin',(620.,15.,-345.));
#2126=CARTESIAN_POINT('Origin',(620.,65.,-345.));
#2127=CARTESIAN_POINT('Origin',(625.000009313226,15.,395.000005885959));
#2128=CARTESIAN_POINT('',(647.500009313226,65.,395.000005885959));
#2129=CARTESIAN_POINT('Origin',(625.000009313226,65.,395.000005885959));
#2130=CARTESIAN_POINT('',(647.500009313226,15.,395.000005885959));
#2131=CARTESIAN_POINT('',(647.500009313226,15.,395.000005885959));
#2132=CARTESIAN_POINT('Origin',(625.000009313226,15.,395.000005885959));
#2133=CARTESIAN_POINT('Origin',(625.000009313226,65.,395.000005885959));
#2134=CARTESIAN_POINT('Origin',(-635.000009462237,15.,-370.00000551343));
#2135=CARTESIAN_POINT('',(-612.500009462237,65.,-370.00000551343));
#2136=CARTESIAN_POINT('Origin',(-635.000009462237,65.,-370.00000551343));
#2137=CARTESIAN_POINT('',(-612.500009462237,15.,-370.00000551343));
#2138=CARTESIAN_POINT('',(-612.500009462237,15.,-370.00000551343));
#2139=CARTESIAN_POINT('Origin',(-635.000009462237,15.,-370.00000551343));
#2140=CARTESIAN_POINT('Origin',(-635.000009462237,65.,-370.00000551343));
#2141=CARTESIAN_POINT('Origin',(-630.,15.,400.));
#2142=CARTESIAN_POINT('',(-607.5,65.,400.));
#2143=CARTESIAN_POINT('Origin',(-630.,65.,400.));
#2144=CARTESIAN_POINT('',(-607.5,15.,400.));
#2145=CARTESIAN_POINT('',(-607.5,15.,400.));
#2146=CARTESIAN_POINT('Origin',(-630.,15.,400.));
#2147=CARTESIAN_POINT('Origin',(-630.,65.,400.));
#2148=CARTESIAN_POINT('Origin',(-775.,255.,-490.));
#2149=CARTESIAN_POINT('',(-775.,255.,-490.));
#2150=CARTESIAN_POINT('',(790.,255.,-490.));
#2151=CARTESIAN_POINT('',(-387.5,255.,-490.));
#2152=CARTESIAN_POINT('',(-775.,15.,-490.));
#2153=CARTESIAN_POINT('',(-775.,255.,-490.));
#2154=CARTESIAN_POINT('',(790.,15.,-490.));
#2155=CARTESIAN_POINT('',(-775.,15.,-490.));
#2156=CARTESIAN_POINT('',(790.,255.,-490.));
#2157=CARTESIAN_POINT('Origin',(-775.,255.,525.));
#2158=CARTESIAN_POINT('',(-775.,255.,525.));
#2159=CARTESIAN_POINT('',(-775.,255.,275.));
#2160=CARTESIAN_POINT('',(-775.,15.,525.));
#2161=CARTESIAN_POINT('',(-775.,255.,525.));
#2162=CARTESIAN_POINT('',(-775.,15.,525.));
#2163=CARTESIAN_POINT('Origin',(790.,255.,525.));
#2164=CARTESIAN_POINT('',(790.,255.,525.));
#2165=CARTESIAN_POINT('',(395.,255.,525.));
#2166=CARTESIAN_POINT('',(790.,15.,525.));
#2167=CARTESIAN_POINT('',(790.,255.,525.));
#2168=CARTESIAN_POINT('',(790.,15.,525.));
#2169=CARTESIAN_POINT('Origin',(790.,255.,-490.));
#2170=CARTESIAN_POINT('',(790.,255.,-232.5));
#2171=CARTESIAN_POINT('',(790.,15.,-490.));
#2172=CARTESIAN_POINT('Origin',(7.5,15.,17.5));
#2173=CARTESIAN_POINT('Origin',(800.,5.,550.));
#2174=CARTESIAN_POINT('',(800.,5.,550.));
#2175=CARTESIAN_POINT('',(800.,5.,-500.));
#2176=CARTESIAN_POINT('',(800.,5.,550.));
#2177=CARTESIAN_POINT('',(800.,255.,-500.));
#2178=CARTESIAN_POINT('',(800.,5.,-500.));
#2179=CARTESIAN_POINT('',(800.,255.,550.));
#2180=CARTESIAN_POINT('',(800.,255.,550.));
#2181=CARTESIAN_POINT('',(800.,5.,550.));
#2182=CARTESIAN_POINT('Origin',(-800.,5.,550.));
#2183=CARTESIAN_POINT('',(-800.,5.,550.));
#2184=CARTESIAN_POINT('',(-800.,5.,550.));
#2185=CARTESIAN_POINT('',(-800.,255.,550.));
#2186=CARTESIAN_POINT('',(-800.,255.,550.));
#2187=CARTESIAN_POINT('',(-800.,5.,550.));
#2188=CARTESIAN_POINT('Origin',(-800.,5.,-500.));
#2189=CARTESIAN_POINT('',(-800.,5.,-500.));
#2190=CARTESIAN_POINT('',(-800.,5.,-500.));
#2191=CARTESIAN_POINT('',(-800.,255.,-500.));
#2192=CARTESIAN_POINT('',(-800.,255.,-500.));
#2193=CARTESIAN_POINT('',(-800.,5.,-500.));
#2194=CARTESIAN_POINT('Origin',(800.,5.,-500.));
#2195=CARTESIAN_POINT('',(800.,5.,-500.));
#2196=CARTESIAN_POINT('',(800.,255.,-500.));
#2197=CARTESIAN_POINT('Origin',(0.,255.,25.));
#2198=CARTESIAN_POINT('Origin',(0.,5.,25.));
#2199=CARTESIAN_POINT('Origin',(625.000009313226,15.,395.000005885959));
#2200=CARTESIAN_POINT('',(647.500009313226,30.,395.000005885959));
#2201=CARTESIAN_POINT('Origin',(625.000009313226,30.,395.000005885959));
#2202=CARTESIAN_POINT('',(647.500009313226,15.,395.000005885959));
#2203=CARTESIAN_POINT('',(647.500009313226,15.,395.000005885959));
#2204=CARTESIAN_POINT('Origin',(625.000009313226,15.,395.000005885959));
#2205=CARTESIAN_POINT('Origin',(620.,15.,-345.));
#2206=CARTESIAN_POINT('',(642.5,30.,-345.));
#2207=CARTESIAN_POINT('Origin',(620.,30.,-345.));
#2208=CARTESIAN_POINT('',(642.5,15.,-345.));
#2209=CARTESIAN_POINT('',(642.5,15.,-345.));
#2210=CARTESIAN_POINT('Origin',(620.,15.,-345.));
#2211=CARTESIAN_POINT('Origin',(-630.,15.,400.));
#2212=CARTESIAN_POINT('',(-607.5,30.,400.));
#2213=CARTESIAN_POINT('Origin',(-630.,30.,400.));
#2214=CARTESIAN_POINT('',(-607.5,15.,400.));
#2215=CARTESIAN_POINT('',(-607.5,15.,400.));
#2216=CARTESIAN_POINT('Origin',(-630.,15.,400.));
#2217=CARTESIAN_POINT('Origin',(-635.000009462237,15.,-370.00000551343));
#2218=CARTESIAN_POINT('',(-612.500009462237,30.,-370.00000551343));
#2219=CARTESIAN_POINT('Origin',(-635.000009462237,30.,-370.00000551343));
#2220=CARTESIAN_POINT('',(-612.500009462237,15.,-370.00000551343));
#2221=CARTESIAN_POINT('',(-612.500009462237,15.,-370.00000551343));
#2222=CARTESIAN_POINT('Origin',(-635.000009462237,15.,-370.00000551343));
#2223=CARTESIAN_POINT('Origin',(790.,15.,-490.));
#2224=CARTESIAN_POINT('',(790.,15.,-490.));
#2225=CARTESIAN_POINT('',(-775.,15.,-490.));
#2226=CARTESIAN_POINT('',(790.,15.,-490.));
#2227=CARTESIAN_POINT('',(-775.,30.,-490.));
#2228=CARTESIAN_POINT('',(-775.,15.,-490.));
#2229=CARTESIAN_POINT('',(790.,30.,-490.));
#2230=CARTESIAN_POINT('',(790.,30.,-490.));
#2231=CARTESIAN_POINT('',(790.,15.,-490.));
#2232=CARTESIAN_POINT('Origin',(790.,15.0000000000001,525.));
#2233=CARTESIAN_POINT('',(790.,15.0000000000001,525.));
#2234=CARTESIAN_POINT('',(790.,15.0000000000001,525.));
#2235=CARTESIAN_POINT('',(790.,30.0000000000001,525.));
#2236=CARTESIAN_POINT('',(790.,30.0000000000001,525.));
#2237=CARTESIAN_POINT('',(790.,15.0000000000001,525.));
#2238=CARTESIAN_POINT('Origin',(-775.,15.,525.));
#2239=CARTESIAN_POINT('',(-775.,15.,525.));
#2240=CARTESIAN_POINT('',(-775.,15.,525.));
#2241=CARTESIAN_POINT('',(-775.,30.,525.));
#2242=CARTESIAN_POINT('',(-775.,30.,525.));
#2243=CARTESIAN_POINT('',(-775.,15.,525.));
#2244=CARTESIAN_POINT('Origin',(-775.,15.,-490.));
#2245=CARTESIAN_POINT('',(-775.,15.,-490.));
#2246=CARTESIAN_POINT('',(-775.,30.,-490.));
#2247=CARTESIAN_POINT('Origin',(7.5,30.,17.5));
#2248=CARTESIAN_POINT('Origin',(7.5,15.,17.5));
#2249=CARTESIAN_POINT('Origin',(-1100.,320.,1750.));
#2250=CARTESIAN_POINT('',(-1100.,320.,1750.));
#2251=CARTESIAN_POINT('',(525.,320.,1750.));
#2252=CARTESIAN_POINT('',(-1100.,320.,1750.));
#2253=CARTESIAN_POINT('',(525.,325.,1750.));
#2254=CARTESIAN_POINT('',(525.,320.,1750.));
#2255=CARTESIAN_POINT('',(-1100.,325.,1750.));
#2256=CARTESIAN_POINT('',(-1100.,325.,1750.));
#2257=CARTESIAN_POINT('',(-1100.,320.,1750.));
#2258=CARTESIAN_POINT('Origin',(-1100.,320.,700.));
#2259=CARTESIAN_POINT('',(-1100.,320.,700.));
#2260=CARTESIAN_POINT('',(-1100.,320.,700.));
#2261=CARTESIAN_POINT('',(-1100.,325.,700.));
#2262=CARTESIAN_POINT('',(-1100.,325.,700.));
#2263=CARTESIAN_POINT('',(-1100.,320.,700.));
#2264=CARTESIAN_POINT('Origin',(525.,320.,700.));
#2265=CARTESIAN_POINT('',(525.,320.,700.));
#2266=CARTESIAN_POINT('',(525.,320.,700.));
#2267=CARTESIAN_POINT('',(525.,325.,700.));
#2268=CARTESIAN_POINT('',(525.,325.,700.));
#2269=CARTESIAN_POINT('',(525.,320.,700.));
#2270=CARTESIAN_POINT('Origin',(525.,320.,1750.));
#2271=CARTESIAN_POINT('',(525.,320.,1750.));
#2272=CARTESIAN_POINT('',(525.,325.,1750.));
#2273=CARTESIAN_POINT('Origin',(-287.5,325.,1225.));
#2274=CARTESIAN_POINT('Origin',(-287.5,320.,1225.));
#2275=CARTESIAN_POINT('',(498.101229120481,320.,1726.41924201121));
#2276=CARTESIAN_POINT('',(498.101229120481,320.,711.419242011207));
#2277=CARTESIAN_POINT('',(498.101229120481,320.,711.419242011207));
#2278=CARTESIAN_POINT('',(-1066.89877087952,320.,711.419242011207));
#2279=CARTESIAN_POINT('',(-1066.89877087952,320.,711.419242011207));
#2280=CARTESIAN_POINT('',(-1066.89877087952,320.,1726.41924201121));
#2281=CARTESIAN_POINT('',(-1066.89877087952,320.,1726.41924201121));
#2282=CARTESIAN_POINT('',(498.101229120481,320.,1726.41924201121));
#2283=CARTESIAN_POINT('Origin',(498.101229120481,305.,1726.41924201121));
#2284=CARTESIAN_POINT('',(498.101229120481,305.,711.419242011207));
#2285=CARTESIAN_POINT('',(498.101229120481,305.,1726.41924201121));
#2286=CARTESIAN_POINT('',(498.101229120481,305.,711.419242011207));
#2287=CARTESIAN_POINT('',(498.101229120481,305.,711.419242011207));
#2288=CARTESIAN_POINT('',(498.101229120481,305.,1726.41924201121));
#2289=CARTESIAN_POINT('Origin',(-1066.89877087952,305.,1726.41924201121));
#2290=CARTESIAN_POINT('',(-1066.89877087952,305.,1726.41924201121));
#2291=CARTESIAN_POINT('',(498.101229120481,305.,1726.41924201121));
#2292=CARTESIAN_POINT('',(-1066.89877087952,305.,1726.41924201121));
#2293=CARTESIAN_POINT('Origin',(-1066.89877087952,305.,711.419242011207));
#2294=CARTESIAN_POINT('',(-1066.89877087952,305.,711.419242011207));
#2295=CARTESIAN_POINT('',(-1066.89877087952,305.,1726.41924201121));
#2296=CARTESIAN_POINT('',(-1066.89877087952,305.,711.419242011207));
#2297=CARTESIAN_POINT('Origin',(498.101229120481,305.,711.419242011207));
#2298=CARTESIAN_POINT('',(-1066.89877087952,305.,711.419242011207));
#2299=CARTESIAN_POINT('Origin',(-284.398770879519,305.,1218.91924201121));
#2300=UNCERTAINTY_MEASURE_WITH_UNIT(LENGTH_MEASURE(0.01),#2304,
'DISTANCE_ACCURACY_VALUE',
'Maximum model space distance between geometric entities at asserted c
onnectivities');
#2301=UNCERTAINTY_MEASURE_WITH_UNIT(LENGTH_MEASURE(0.01),#2304,
'DISTANCE_ACCURACY_VALUE',
'Maximum model space distance between geometric entities at asserted c
onnectivities');
#2302=(
GEOMETRIC_REPRESENTATION_CONTEXT(3)
GLOBAL_UNCERTAINTY_ASSIGNED_CONTEXT((#2300))
GLOBAL_UNIT_ASSIGNED_CONTEXT((#2304,#2305,#2306))
REPRESENTATION_CONTEXT('','3D')
);
#2303=(
GEOMETRIC_REPRESENTATION_CONTEXT(3)
GLOBAL_UNCERTAINTY_ASSIGNED_CONTEXT((#2301))
GLOBAL_UNIT_ASSIGNED_CONTEXT((#2304,#2305,#2306))
REPRESENTATION_CONTEXT('','3D')
);
#2304=(
LENGTH_UNIT()
NAMED_UNIT(*)
SI_UNIT(.MILLI.,.METRE.)
);
#2305=(
NAMED_UNIT(*)
PLANE_ANGLE_UNIT()
SI_UNIT($,.RADIAN.)
);
#2306=(
NAMED_UNIT(*)
SI_UNIT($,.STERADIAN.)
SOLID_ANGLE_UNIT()
);
#2307=SHAPE_DEFINITION_REPRESENTATION(#2308,#2309);
#2308=PRODUCT_DEFINITION_SHAPE('',$,#2311);
#2309=SHAPE_REPRESENTATION('',(#1432),#2302);
#2310=PRODUCT_DEFINITION_CONTEXT('part definition',#2315,'design');
#2311=PRODUCT_DEFINITION('2026-07-02-21-16-06-361','housing',#2312,#2310);
#2312=PRODUCT_DEFINITION_FORMATION('',$,#2317);
#2313=PRODUCT_RELATED_PRODUCT_CATEGORY('housing','housing',(#2317));
#2314=APPLICATION_PROTOCOL_DEFINITION('international standard',
'automotive_design',2009,#2315);
#2315=APPLICATION_CONTEXT(
'Core Data for Automotive Mechanical Design Process');
#2316=PRODUCT_CONTEXT('part definition',#2315,'mechanical');
#2317=PRODUCT('2026-07-02-21-16-06-361','housing',$,(#2316));
#2318=PRESENTATION_STYLE_ASSIGNMENT((#2320));
#2319=PRESENTATION_STYLE_ASSIGNMENT((#2321));
#2320=SURFACE_STYLE_USAGE(.BOTH.,#2322);
#2321=SURFACE_STYLE_USAGE(.BOTH.,#2323);
#2322=SURFACE_SIDE_STYLE('',(#2324));
#2323=SURFACE_SIDE_STYLE('',(#2325));
#2324=SURFACE_STYLE_FILL_AREA(#2326);
#2325=SURFACE_STYLE_FILL_AREA(#2327);
#2326=FILL_AREA_STYLE('Steel - Satin',(#2328));
#2327=FILL_AREA_STYLE('ABS (White)',(#2329));
#2328=FILL_AREA_STYLE_COLOUR('Steel - Satin',#2330);
#2329=FILL_AREA_STYLE_COLOUR('ABS (White)',#2331);
#2330=COLOUR_RGB('Steel - Satin',0.627450980392157,0.627450980392157,0.627450980392157);
#2331=COLOUR_RGB('ABS (White)',0.964705882352941,0.964705882352941,0.952941176470588);
ENDSEC;
END-ISO-10303-21;
